<svg width="84" height="52" viewBox="0 0 84 52" fill="none" xmlns="http://www.w3.org/2000/svg">
<path d="M13.5 25L44.5 7V45.5L13.5 28V25Z" fill="#3BB30B"/>
<path d="M10.7442 0H1.95349C0.781395 0 0 0.773234 0 1.93309V50.0669C0 51.2268 0.781395 52 1.95349 52H10.7442C11.9163 52 12.6977 51.2268 12.6977 50.0669V29.3829L44.5395 47.5539C44.9302 47.7472 45.1256 47.7472 45.5163 47.7472C45.907 47.7472 46.1023 47.7472 46.493 47.5539C47.0791 47.1673 47.4698 46.5874 47.4698 45.8141V28.4164L81.0698 47.5539C81.4605 47.7472 81.6558 47.7472 82.0465 47.7472C82.4372 47.7472 82.6326 47.7472 83.0233 47.5539C83.6093 47.1673 84 46.5874 84 45.8141V6.18587C84 5.41264 83.6093 4.83271 83.0233 4.44609C82.4372 4.05948 81.6558 4.05948 81.0698 4.44609L47.4698 23.5836V6.18587C47.4698 5.41264 47.0791 4.83271 46.493 4.44609C45.907 4.05948 45.1256 4.05948 44.5395 4.44609L12.6977 22.8104V1.93309C12.6977 0.966543 11.9163 0 10.7442 0ZM80.093 9.66543V42.7212L51.1814 26.0967L80.093 9.66543ZM43.5628 9.66543V42.7212L14.6512 26.0967L43.5628 9.66543ZM8.7907 48.3271H3.90698V3.86617H8.7907V48.3271Z" fill="#606060"/>
</svg>
