<svg width="51" height="52" viewBox="0 0 51 52" fill="none" xmlns="http://www.w3.org/2000/svg">
<path d="M49.404 28.9075L48.4988 27.5971C47.7581 26.5324 47.6758 25.0581 48.4988 23.9934L49.404 22.683C50.4738 21.2088 49.98 19.0794 48.3342 18.1785L46.9352 17.4414C45.7831 16.7862 45.1248 15.5577 45.3716 14.2473L45.6185 12.6912C45.9477 10.8894 44.5487 9.16953 42.7383 9.08763L41.1747 9.00573C39.858 8.92383 38.7059 8.02293 38.3767 6.79443L37.9652 5.23833C37.4715 3.43653 35.4965 2.53563 33.7683 3.27273L32.287 3.92793C31.0526 4.41933 29.6536 4.17363 28.7484 3.19083L27.6786 2.04423C26.4442 0.651925 24.3046 0.651925 23.0702 2.04423L22.0004 3.27273C21.0951 4.25553 19.6962 4.58313 18.5441 4.09173L17.0628 3.51843C15.3346 2.78133 13.4419 3.76413 12.9481 5.56593L12.5367 7.12203C12.2075 8.43243 11.0554 9.33333 9.73869 9.41523L8.17512 9.49713C6.36467 9.57903 4.96569 11.2989 5.29486 13.1007L5.54174 14.6568C5.78862 15.9672 5.13027 17.2776 3.97817 17.9328L2.57918 18.6699C0.93332 19.5708 0.521854 21.7002 1.59167 23.1744L2.49689 24.4848C3.23753 25.5495 3.31982 27.0238 2.49689 28.0885L1.75625 29.2351C0.686441 30.7093 1.1802 32.8387 2.82606 33.7396L4.22505 34.4767C5.37715 35.1319 6.0355 36.3604 5.78862 37.6708L5.54174 39.2269C5.21257 41.0287 6.61155 42.7486 8.422 42.8305L9.98557 42.9124C11.3023 42.9943 12.4544 43.8952 12.7835 45.1237L13.195 46.6798C13.6888 48.4816 15.6638 49.3825 17.392 48.6454L18.8732 47.9902C20.1076 47.4988 21.5066 47.7445 22.4118 48.7273L23.4816 49.9558C24.716 51.3481 26.8557 51.3481 28.0901 49.9558L29.1599 48.7273C30.0651 47.7445 31.4641 47.4169 32.6162 47.9083L34.0975 48.4816C35.8256 49.2187 37.7184 48.2359 38.2121 46.4341L38.6236 44.878C38.9528 43.5676 40.1049 42.6667 41.4216 42.5848L42.9851 42.5029C44.7956 42.421 46.1946 40.7011 45.8654 38.8993L45.5362 37.4251C45.2893 36.1147 45.9477 34.8043 47.0998 34.1491L48.4988 33.412C50.0624 32.5111 50.4738 30.3817 49.404 28.9075ZM25.539 41.1925C17.0628 41.1925 10.2324 34.3129 10.2324 25.7952C10.2324 17.2776 17.0628 10.398 25.539 10.398C34.0152 10.398 40.8455 17.2776 40.8455 25.7952C40.8455 34.3129 34.0152 41.1925 25.539 41.1925Z" fill="#DCDCDC" stroke="#3BB30B" stroke-width="2"/>
<path d="M30.8877 27.7608L35.2493 24.0753C36.0722 23.3382 35.6607 22.0278 34.5909 21.9459L28.8304 21.5364L26.6908 16.2129C26.2793 15.2301 24.8803 15.2301 24.4689 16.2129L22.3292 21.5364L16.5687 21.9459C15.4989 22.0278 15.0874 23.3382 15.9104 24.0753L20.2719 27.7608L18.8729 33.3301C18.6261 34.3948 19.7782 35.2138 20.6834 34.6404L25.5387 31.6101L30.4763 34.6404C31.3815 35.2138 32.5336 34.3948 32.2867 33.3301L30.8877 27.7608Z" fill="#DED737"/>
</svg>
