<svg width="90" height="91" viewBox="0 0 90 91" fill="none" xmlns="http://www.w3.org/2000/svg">
<path d="M58.3098 42.1879C58.3098 39.5726 56.4688 37.2155 53.7848 36.338C53.8364 36.0799 53.8536 35.8218 53.8536 35.5637C53.8536 32.8797 51.4792 30.6946 48.5715 30.6946C47.1778 30.6946 45.8358 31.2107 44.8551 32.1054C43.8744 31.2107 42.5324 30.6946 41.1387 30.6946C38.231 30.6946 35.8566 32.8797 35.8566 35.5637C35.8566 35.8218 35.8738 36.0799 35.9254 36.338C33.2414 37.1983 31.4004 39.5726 31.4004 42.1879C31.4004 43.4611 31.8133 44.6827 32.622 45.715C31.8305 46.8334 31.4004 48.1238 31.4004 49.4486C31.4004 51.5821 32.5015 53.6123 34.3769 54.9027C34.4802 57.8793 37.147 60.2537 40.3989 60.2537C42.1022 60.2537 43.7195 59.5998 44.8551 58.4299C45.9907 59.5826 47.608 60.2537 49.3113 60.2537C52.4255 60.2537 55.0236 58.0686 55.316 55.2469C57.1742 54.1113 58.3098 52.1499 58.3098 50.1024C58.3098 48.6571 57.742 47.2463 56.7269 46.1451C57.742 45.0268 58.3098 43.6331 58.3098 42.1879ZM49.2941 50.5325C49.1737 50.9283 49.2081 51.3584 49.3974 51.7197C49.5866 52.0982 49.9135 52.3563 50.3092 52.494C51.4276 52.8553 52.1846 53.75 52.1846 54.7307C52.1846 56.0555 50.8942 57.1223 49.2941 57.1223C47.694 57.1223 46.4036 56.0383 46.4036 54.7307V46.7989C46.4036 45.4741 47.694 44.4074 49.2941 44.4074C50.1544 44.4074 50.8598 43.7019 50.8598 42.8417C50.8598 41.9814 50.1544 41.276 49.2941 41.276C48.279 41.276 47.2811 41.5168 46.4036 41.9642V40.9491C46.4036 40.0888 45.6982 39.3834 44.8379 39.3834C43.9776 39.3834 43.2722 40.0888 43.2722 40.9491V47.2463C42.9625 47.0914 42.6528 46.971 42.3431 46.8678C41.5172 46.6097 40.6397 47.0742 40.3817 47.9001C40.2612 48.2958 40.2956 48.726 40.4849 49.0873C40.6742 49.4658 41.0011 49.7239 41.3968 49.8615C42.5151 50.2228 43.2722 51.1175 43.2722 52.0982V54.7479C43.2722 56.0727 41.9818 57.1395 40.3817 57.1395C38.7816 57.1395 37.4911 56.0555 37.4911 54.7479C37.4911 54.1973 37.732 53.6467 38.1622 53.2166C38.4547 52.9241 38.6267 52.5284 38.6267 52.1154C38.6267 51.7025 38.4719 51.3068 38.1794 51.0143C37.8869 50.7218 37.4911 50.5497 37.0782 50.5497C36.6653 50.5497 36.2695 50.7046 35.9771 50.9971C35.7706 51.2036 35.5813 51.4272 35.4093 51.6681C34.8587 51.0315 34.549 50.2573 34.549 49.4658C34.549 47.7969 35.8738 46.3172 37.7836 45.8698C38.1966 45.7838 38.5407 45.5257 38.7643 45.1816C38.988 44.8203 39.0568 44.4074 38.9708 43.9944C38.8848 43.5815 38.6267 43.2374 38.2826 43.0137C37.9213 42.7901 37.5083 42.7212 37.0954 42.8073C36.3556 42.9793 35.6502 43.2546 34.9963 43.6159C34.7038 43.1686 34.5662 42.6868 34.5662 42.1879C34.5662 40.5189 36.1835 39.1425 38.1622 39.1253C38.1794 39.1253 38.1966 39.1253 38.2138 39.1253C38.5751 39.1253 38.9364 38.9876 39.2289 38.7468C39.8139 38.2478 39.9515 37.3875 39.5386 36.7165C39.5214 36.6993 39.5214 36.6821 39.5042 36.6649C39.5042 36.6477 39.487 36.6477 39.487 36.6305C39.4698 36.5961 39.4354 36.5789 39.4182 36.5445L39.3837 36.51C39.2117 36.3036 39.0224 35.9767 39.0224 35.5465C39.0224 34.583 39.9859 33.8088 41.1731 33.8088C42.3603 33.8088 43.3238 34.583 43.3238 35.5465C43.3238 36.4068 44.0292 37.1122 44.8895 37.1122C45.7498 37.1122 46.4552 36.4068 46.4552 35.5465C46.4552 34.583 47.4187 33.8088 48.6059 33.8088C49.7931 33.8088 50.7566 34.583 50.7566 35.5465C50.7566 35.7014 50.7222 35.8562 50.6706 36.0111C49.9995 36.0971 49.3457 36.2692 48.7435 36.5272C48.365 36.6821 48.0553 36.9918 47.9005 37.3875C47.7456 37.7833 47.7456 38.1962 47.9005 38.5919C48.0553 38.9704 48.365 39.2801 48.7608 39.435C49.1565 39.5898 49.5694 39.5898 49.9651 39.435C50.4641 39.2285 50.9975 39.1253 51.548 39.1081C51.5825 39.1081 51.6169 39.1081 51.6169 39.1081C53.6127 39.1253 55.23 40.5017 55.23 42.1707C55.23 43.2202 54.5762 44.1837 53.5095 44.7515C52.9933 45.0268 52.6664 45.5601 52.6664 46.1451C52.6664 46.7301 52.9933 47.2635 53.5095 47.5388C54.5934 48.1066 55.23 49.0701 55.23 50.1196C55.23 50.7562 54.9891 51.3756 54.5418 51.909C53.8192 50.7906 52.6836 49.9475 51.3244 49.5174C50.4297 49.2421 49.5522 49.7067 49.2941 50.5325Z" fill="#3BB30B"/>
<path d="M68.6672 77.6313C67.7037 77.6313 66.809 77.8378 65.9832 78.1991L59.4623 71.6782C59.0838 71.2997 58.8773 70.8008 58.8773 70.2674V67.2736H59.3763C59.9957 67.2736 60.5978 67.2048 61.1828 67.0499C62.2324 66.7747 62.869 65.6907 62.6109 64.6412C62.3356 63.5916 61.2517 62.955 60.2021 63.2131C59.9268 63.2819 59.6515 63.3164 59.3763 63.3164H30.2989C28.4751 63.3164 26.9955 61.8367 26.9955 60.0129V30.9528C26.9955 30.6775 27.0299 30.385 27.0987 30.1269C27.2363 29.6107 27.1503 29.0774 26.8922 28.63C26.6169 28.1827 26.1868 27.8558 25.6878 27.7181C25.1717 27.5805 24.6383 27.6665 24.191 27.9246C23.7436 28.1999 23.4167 28.63 23.2791 29.129C23.1242 29.714 23.0554 30.3334 23.0554 30.9356V31.6066H15.7775C15.0032 28.7677 12.4052 26.6858 9.3426 26.6858C5.66062 26.6858 2.66686 29.6796 2.66686 33.3615C2.66686 37.0435 5.66062 40.0373 9.3426 40.0373C12.2503 40.0373 14.7279 38.1619 15.6398 35.5638H23.0726V37.5597H18.4443C17.3604 37.5597 16.4657 38.4544 16.4657 39.5383C16.4657 40.6223 17.3604 41.517 18.4443 41.517H23.0726V43.5128H3.87124C2.78729 43.5128 1.89261 44.4075 1.89261 45.4914C1.89261 46.5754 2.78729 47.4701 3.87124 47.4701H23.0382V49.4659H18.4099C17.326 49.4659 16.4313 50.3606 16.4313 51.4445C16.4313 52.5285 17.326 53.4232 18.4099 53.4232H23.0382V55.419H20.0444C18.4615 55.419 16.9646 56.0384 15.8463 57.1568L9.9792 63.0239C8.99849 62.4733 7.88013 62.1464 6.67574 62.1464C2.99376 62.1464 0 65.1401 0 68.8221C0 72.5041 2.99376 75.4979 6.67574 75.4979C10.3577 75.4979 13.3515 72.5041 13.3515 68.8221C13.3515 67.7726 13.1106 66.7919 12.6805 65.9144L18.6508 59.9441C19.0293 59.5655 19.5283 59.3591 20.0616 59.3591H23.0554V60.0301C23.0554 64.039 26.3072 67.2908 30.3161 67.2908H30.9871V75.4463C28.2343 76.2721 26.2212 78.8185 26.2212 81.8467C26.2212 85.5287 29.215 88.5224 32.897 88.5224C36.5789 88.5224 39.5727 85.5287 39.5727 81.8467C39.5727 78.8701 37.6285 76.3581 34.9272 75.4979V67.308H36.923V71.9363C36.923 73.0203 37.8177 73.915 38.9017 73.915C39.9856 73.915 40.8803 73.0203 40.8803 71.9363V67.308H42.8762V86.475C42.8762 87.5589 43.7708 88.4536 44.8548 88.4536C45.9387 88.4536 46.8334 87.5589 46.8334 86.475V67.2908H48.9841V71.9191C48.9841 73.0031 49.8788 73.8978 50.9628 73.8978C52.0467 73.8978 52.9414 73.0031 52.9414 71.9191V67.2908H54.92V70.2846C54.92 71.8675 55.5394 73.3644 56.6578 74.4827L62.9894 80.8144C62.3528 81.8295 61.9915 83.0339 61.9915 84.3243C61.9915 88.0063 64.9853 91 68.6672 91C72.3492 91 75.343 88.0063 75.343 84.3243C75.343 80.6423 72.3492 77.6313 68.6672 77.6313ZM9.30819 36.08C7.81131 36.08 6.58971 34.8584 6.58971 33.3615C6.58971 31.8647 7.81131 30.6431 9.30819 30.6431C10.8051 30.6431 12.0267 31.8647 12.0267 33.3615C12.0267 34.8756 10.8051 36.08 9.30819 36.08ZM6.67574 71.5406C5.17886 71.5406 3.95727 70.319 3.95727 68.8221C3.95727 67.3252 5.17886 66.1036 6.67574 66.1036C8.17262 66.1036 9.39422 67.3252 9.39422 68.8221C9.39422 70.319 8.17262 71.5406 6.67574 71.5406ZM32.897 84.5652C31.4001 84.5652 30.1785 83.3436 30.1785 81.8467C30.1785 80.3498 31.4001 79.1282 32.897 79.1282C34.3938 79.1282 35.6154 80.3498 35.6154 81.8467C35.6154 83.3436 34.3938 84.5652 32.897 84.5652ZM68.6672 87.0256C67.1704 87.0256 65.9488 85.804 65.9488 84.3071C65.9488 82.8102 67.1704 81.5886 68.6672 81.5886C70.1641 81.5886 71.3857 82.8102 71.3857 84.3071C71.3857 85.804 70.1641 87.0256 68.6672 87.0256Z" fill="#4F4F4F"/>
<path d="M85.8038 47.384C86.8533 47.384 87.6964 46.5409 87.6964 45.4914C87.6964 44.4419 86.8533 43.5988 85.8038 43.5988H66.568V41.4481H71.2651C72.3146 41.4481 73.1577 40.605 73.1577 39.5555C73.1577 38.506 72.3146 37.6629 71.2651 37.6629H66.5508V35.5122H69.6134C71.1791 35.5122 72.6587 34.91 73.7599 33.7916L79.713 27.8385C80.6077 28.2859 81.6056 28.5268 82.6552 28.5268C86.3371 28.5268 89.3309 25.533 89.3309 21.851C89.3309 18.169 86.3371 15.1753 82.6552 15.1753C78.9732 15.1753 75.9794 18.169 75.9794 21.851C75.9794 23.0898 76.3235 24.2598 76.9257 25.2577L71.0758 31.1076C70.6801 31.5033 70.1639 31.7098 69.6134 31.7098H66.5508V30.9527C66.5508 26.9955 63.3334 23.778 59.3761 23.778H58.619V15.8979C61.4063 15.1064 63.4538 12.5256 63.4538 9.48024C63.4538 5.79826 60.46 2.8045 56.7781 2.8045C53.0961 2.8045 50.1023 5.79826 50.1023 9.48024C50.1023 12.474 52.0982 15.0204 54.8166 15.8635V23.778H52.6831V19.0637C52.6831 18.0142 51.8401 17.1711 50.7905 17.1711C49.741 17.1711 48.8979 18.0142 48.8979 19.0637V23.778H46.7472V4.52505C46.7472 3.47552 45.9042 2.63244 44.8546 2.63244C43.8051 2.63244 42.962 3.47552 42.962 4.52505V23.778H40.8113V19.0637C40.8113 18.0142 39.9683 17.1711 38.9187 17.1711C37.8692 17.1711 37.0261 18.0142 37.0261 19.0637V23.778H35.0303V20.7154C35.0303 19.1497 34.4281 17.6701 33.3097 16.5689L26.9953 10.2545C27.6491 9.22216 28.0448 7.98336 28.0448 6.67574C28.0448 2.99376 25.0511 0 21.3691 0C17.6871 0 14.6934 2.99376 14.6934 6.67574C14.6934 10.3577 17.6871 13.3515 21.3691 13.3515C22.3498 13.3515 23.2961 13.1278 24.1392 12.7493L30.6429 19.253C31.0386 19.6487 31.2451 20.1649 31.2451 20.7154V23.778H30.3332C29.731 23.778 29.1288 23.8469 28.5438 24.0017C28.062 24.1221 27.6491 24.4318 27.391 24.8792C27.1329 25.3093 27.0641 25.8255 27.1846 26.3072C27.305 26.8062 27.6147 27.2019 28.062 27.46C28.4922 27.7181 29.0084 27.7869 29.5073 27.6665C29.7826 27.5977 30.0751 27.5632 30.3504 27.5632H59.4277C61.3031 27.5632 62.8172 29.0773 62.8172 30.9527V60.0301C62.8172 60.3226 62.7828 60.5978 62.714 60.8731C62.4559 61.8883 63.0581 62.9206 64.0732 63.1787C64.228 63.2131 64.3829 63.2303 64.5377 63.2303C65.398 63.2303 66.1551 62.6453 66.3787 61.8022C66.5336 61.2172 66.6024 60.6151 66.6024 60.0129V59.2558H74.7062C75.7041 61.699 78.0957 63.4368 80.9002 63.4368C84.5822 63.4368 87.5759 60.443 87.5759 56.761C87.5759 53.079 84.5822 50.0853 80.9002 50.0853C77.6655 50.0853 74.9643 52.408 74.3449 55.4706H66.5852V53.3199H71.2651C72.3146 53.3199 73.1577 52.4768 73.1577 51.4273C73.1577 50.3778 72.3146 49.5347 71.2651 49.5347H66.5508V47.384H85.8038ZM82.6724 19.1153C84.1692 19.1153 85.3908 20.3369 85.3908 21.8338C85.3908 23.3307 84.1692 24.5523 82.6724 24.5523C81.1755 24.5523 79.9539 23.3307 79.9539 21.8338C79.9539 20.3197 81.1755 19.1153 82.6724 19.1153ZM18.6334 6.65854C18.6334 5.16166 19.855 3.94006 21.3519 3.94006C22.8488 3.94006 24.0704 5.16166 24.0704 6.65854C24.0704 8.15542 22.8488 9.37701 21.3519 9.37701C19.855 9.37701 18.6334 8.15542 18.6334 6.65854ZM56.7953 6.74456C58.2921 6.74456 59.5137 7.96616 59.5137 9.46304C59.5137 10.9599 58.2921 12.1815 56.7953 12.1815C55.2984 12.1815 54.0768 10.9599 54.0768 9.46304C54.0768 7.96616 55.2984 6.74456 56.7953 6.74456ZM80.8658 54.0597C82.3627 54.0597 83.5843 55.2813 83.5843 56.7782C83.5843 58.2751 82.3627 59.4967 80.8658 59.4967C79.3689 59.4967 78.1473 58.2751 78.1473 56.7782C78.1473 55.2813 79.3689 54.0597 80.8658 54.0597Z" fill="#A7A7A7"/>
</svg>
