<svg width="74" height="74" viewBox="0 0 74 74" fill="none" xmlns="http://www.w3.org/2000/svg">
<path d="M37.0004 10.5601C27.3065 10.5601 19.4004 18.3928 19.4004 28.0226C19.4004 33.6242 21.5042 36.718 23.2779 39.1051C25.0516 41.4921 26.4404 43.1306 26.4404 47.5201C26.4404 47.9868 26.6259 48.4345 26.9559 48.7645C27.286 49.0946 27.7336 49.28 28.2004 49.2801H45.8004C46.2672 49.28 46.7148 49.0946 47.0448 48.7645C47.3749 48.4345 47.5603 47.9868 47.5604 47.5201C47.5604 43.1306 48.9492 41.4921 50.7229 39.1051C52.4966 36.718 54.6004 33.6242 54.6004 28.0226C54.6004 18.3928 46.6943 10.5601 37.0004 10.5601ZM37.0004 14.0801C44.8086 14.0801 51.0804 20.3114 51.0804 28.0226C51.0804 32.8307 49.6642 34.6648 47.9179 37.0151C46.3897 39.0717 44.635 41.655 44.2054 45.7601H38.7604V32.2576C40.7993 31.5241 42.2804 29.5575 42.2804 27.2801C42.2804 24.3849 39.8956 22.0001 37.0004 22.0001C34.1052 22.0001 31.7204 24.3849 31.7204 27.2801C31.7204 29.5575 33.2015 31.5241 35.2404 32.2576V45.7601H29.7954C29.3658 41.655 27.6111 39.0717 26.0829 37.0151C24.3366 34.6648 22.9204 32.8307 22.9204 28.0226C22.9204 20.3114 29.1922 14.0801 37.0004 14.0801ZM37.0004 25.5201C37.9933 25.5201 38.7604 26.2872 38.7604 27.2801C38.7604 28.2729 37.9933 29.0401 37.0004 29.0401C36.0075 29.0401 35.2404 28.2729 35.2404 27.2801C35.2404 26.2872 36.0075 25.5201 37.0004 25.5201ZM29.3554 52.8001C29.1242 52.8108 28.8975 52.8671 28.688 52.9655C28.4786 53.0639 28.2906 53.2027 28.1348 53.3738C27.979 53.5449 27.8584 53.745 27.78 53.9627C27.7015 54.1804 27.6667 54.4114 27.6775 54.6426C27.6884 54.8737 27.7446 55.1005 27.8431 55.3099C27.9416 55.5193 28.0804 55.7073 28.2515 55.863C28.4226 56.0188 28.6228 56.1393 28.8405 56.2178C29.0582 56.2962 29.2892 56.3309 29.5204 56.3201H44.4804C44.7136 56.3234 44.9452 56.2803 45.1616 56.1933C45.378 56.1063 45.575 55.9772 45.7411 55.8135C45.9072 55.6497 46.0391 55.4546 46.1291 55.2394C46.2191 55.0242 46.2654 54.7933 46.2654 54.5601C46.2654 54.3268 46.2191 54.0959 46.1291 53.8807C46.0391 53.6655 45.9072 53.4704 45.7411 53.3067C45.575 53.1429 45.378 53.0138 45.1616 52.9268C44.9452 52.8399 44.7136 52.7968 44.4804 52.8001H29.5204C29.4654 52.7975 29.4104 52.7975 29.3554 52.8001ZM32.8754 59.8401C32.6442 59.8508 32.4175 59.9071 32.208 60.0055C31.9986 60.1039 31.8106 60.2427 31.6548 60.4138C31.499 60.5849 31.3784 60.785 31.3 61.0027C31.2215 61.2204 31.1867 61.4514 31.1975 61.6826C31.2084 61.9137 31.2646 62.1405 31.3631 62.3499C31.4616 62.5593 31.6004 62.7473 31.7715 62.903C31.9426 63.0588 32.1428 63.1794 32.3605 63.2578C32.5782 63.3362 32.8092 63.3709 33.0404 63.3601H40.9604C41.1936 63.3634 41.4252 63.3203 41.6416 63.2333C41.858 63.1463 42.055 63.0172 42.2211 62.8535C42.3872 62.6897 42.5191 62.4946 42.6091 62.2794C42.6991 62.0642 42.7454 61.8333 42.7454 61.6001C42.7454 61.3668 42.6991 61.1359 42.6091 60.9207C42.5191 60.7056 42.3872 60.5104 42.2211 60.3467C42.055 60.1829 41.858 60.0538 41.6416 59.9668C41.4252 59.8799 41.1936 59.8368 40.9604 59.8401H33.0404C32.9854 59.8375 32.9304 59.8375 32.8754 59.8401Z" fill="#3BB30B"/>
<path d="M37 0C16.6084 0 0.0400391 16.5684 0.0400391 36.96C0.0400391 44.6989 2.48516 51.8382 6.55754 57.7775L0.205039 71.4175C0.0513404 71.7494 0.00482326 72.1208 0.0719509 72.4803C0.139079 72.8398 0.316517 73.1695 0.579612 73.4235C0.842708 73.6775 1.17839 73.8433 1.54003 73.8978C1.90166 73.9523 2.27129 73.8927 2.59754 73.7275L15.715 67.1825C16.5444 67.8512 17.4674 68.6577 18.52 69.2725C18.9247 69.5033 19.4043 69.5645 19.8539 69.4426C20.3035 69.3207 20.6865 69.0257 20.9192 68.6222C21.1519 68.2186 21.2153 67.7393 21.0955 67.2891C20.9757 66.839 20.6825 66.4546 20.28 66.22C19.5206 65.7765 18.0498 64.5096 16.925 63.69C16.6635 63.4942 16.3526 63.3751 16.0272 63.3459C15.7018 63.3168 15.3747 63.3788 15.0825 63.525L5.54004 68.31L10.1325 58.41C10.2679 58.1247 10.3241 57.8081 10.295 57.4936C10.266 57.1791 10.1529 56.8782 9.96754 56.6225C5.9439 51.1007 3.56004 44.3208 3.56004 36.96C3.56004 18.4707 18.5108 3.52 37 3.52C55.4893 3.52 70.44 18.4707 70.44 36.96C70.44 55.4492 55.4893 70.4 37 70.4C33.2419 70.4 29.5228 69.8961 26.1375 68.7225C25.6963 68.5693 25.2123 68.5977 24.7919 68.8014C24.3716 69.0052 24.0495 69.3675 23.8963 69.8087C23.7431 70.25 23.7715 70.734 23.9752 71.1543C24.1789 71.5747 24.5413 71.8968 24.9825 72.05C28.8331 73.385 32.9384 73.92 37 73.92C57.3916 73.92 73.96 57.3516 73.96 36.96C73.96 16.5684 57.3916 0 37 0Z" fill="#585858"/>
</svg>
