<svg width="20" height="20" viewBox="0 0 20 20" fill="none" xmlns="http://www.w3.org/2000/svg">
<path fill-rule="evenodd" clip-rule="evenodd" d="M19.3877 0.464976C18.7673 -0.154505 17.7621 -0.154505 17.1416 0.464976L9.92605 7.68056L2.71144 0.464976C2.09099 -0.155479 1.0858 -0.154505 0.465341 0.464976C-0.155114 1.08543 -0.155114 2.09063 0.465341 2.71108L7.67995 9.92666L0.465341 17.1413C-0.155114 17.7617 -0.155114 18.7679 0.465341 19.3884C0.775081 19.6981 1.18222 19.853 1.58839 19.853C1.99456 19.853 2.40073 19.6981 2.71144 19.3884L9.92605 12.1728L17.1416 19.3884C17.4524 19.6981 17.8575 19.853 18.2647 19.853C18.6718 19.853 19.077 19.6981 19.3877 19.3884C20.0072 18.7679 20.0072 17.7617 19.3877 17.1413L12.1722 9.92666L19.3877 2.71108C20.0072 2.09063 20.0072 1.08543 19.3877 0.464976Z" fill="#606060"/>
</svg>
