<svg width="46" height="35" viewBox="0 0 46 35" fill="none" xmlns="http://www.w3.org/2000/svg">
<path d="M22.9175 2.67993V5.34594H23.397C24.2291 5.34594 25.9215 5.72281 27.092 6.16947C31.1678 7.73279 34.1436 11.7946 34.5808 16.4008L34.6654 17.35H31.4358H28.2062L32.6487 21.7468L37.0912 26.1436L41.5055 21.7887L45.9057 17.4198L42.8876 17.3779L39.8836 17.35L39.7708 15.7867C39.5733 12.6181 38.7413 10.1894 36.9501 7.43967C36.1322 6.18343 33.9039 3.95013 32.6769 3.12659C29.8703 1.27016 27.2754 0.348917 24.215 0.111629L22.9175 -3.68347e-05V2.67993Z" fill="#3BB30B"/>
<path d="M4.37199 13.1626L0 17.4896H2.97577H5.95155L6.06437 19.0529C6.33233 23.2543 7.91189 26.7578 10.9159 29.8147C13.6801 32.6342 17.629 34.4488 21.6202 34.7419L22.9177 34.8396V32.2294V29.6332H22.4382C21.6061 29.6332 19.9137 29.2563 18.7431 28.8097C14.6391 27.2324 11.6633 23.1287 11.2543 18.5085L11.1697 17.4896L14.3006 17.4617L17.4174 17.4198L13.0878 13.1207L8.74398 8.83553L4.37199 13.1626Z" fill="#3BB30B"/>
</svg>
