<svg width="39" height="35" viewBox="0 0 39 35" fill="none" xmlns="http://www.w3.org/2000/svg">
<path d="M0.81353 34.331C0.325412 34.331 0 34.0056 0 33.5174V25.5449C0 25.0567 0.325412 24.7313 0.81353 24.7313C1.30165 24.7313 1.62706 25.0567 1.62706 25.5449V33.5174C1.62706 34.0056 1.30165 34.331 0.81353 34.331Z" fill="#636363"/>
<path d="M11.3894 29.8566H0.81353C0.325412 29.8566 0 29.5312 0 29.043C0 28.5549 0.325412 28.2295 0.81353 28.2295H9.76236V17.6536C9.76236 17.1655 10.0878 16.8401 10.5759 16.8401C11.064 16.8401 11.3894 17.1655 11.3894 17.6536V29.8566Z" fill="#636363"/>
<path d="M32.0531 24.2432L2.27788 15.2944L6.50823 0L36.2834 8.94883L32.0531 24.2432ZM4.23035 14.2368L30.9141 22.2094L34.331 10.0064L7.64717 2.03382L4.23035 14.2368Z" fill="#636363"/>
<path d="M35.714 21.4772C35.5513 21.4772 35.3885 21.4772 35.2258 21.3959L31.4023 20.3383L34.0055 11.1454L37.8291 12.203C38.2359 12.2843 38.6427 12.6097 38.8054 12.9352C38.9681 13.2606 39.0494 13.6673 38.9681 14.0741L37.2597 20.3383C37.097 21.0704 36.4461 21.4772 35.714 21.4772ZM33.4361 19.1993L35.714 19.8502L37.4224 13.7487L35.1445 13.0979L33.4361 19.1993Z" fill="#636363"/>
<path d="M30.2633 14.6435C28.8803 14.6435 27.8228 13.586 27.8228 12.2029C27.8228 10.9013 28.8803 9.76236 30.2633 9.76236C31.6463 9.76236 32.7039 10.8199 32.7039 12.2029C32.7039 13.586 31.6463 14.6435 30.2633 14.6435ZM30.2633 11.4708C29.7752 11.4708 29.4498 11.7962 29.4498 12.2843C29.4498 12.7724 29.7752 13.0978 30.2633 13.0978C30.7515 13.0978 31.0769 12.7724 31.0769 12.2843C31.0769 11.7962 30.7515 11.4708 30.2633 11.4708Z" fill="#636363"/>
</svg>
