<svg width="129" height="265" viewBox="0 0 129 265" fill="none" xmlns="http://www.w3.org/2000/svg">
<path d="M127.285 96.925C126.865 96.6143 126.376 96.4112 125.859 96.3336C125.343 96.2559 124.816 96.3061 124.323 96.4796L91.37 108.097C81.0107 111.752 72.9625 121.221 69.8415 133.427C68.3218 139.65 67.2491 145.973 66.6316 152.349C64.1851 155.461 62.1094 158.848 60.4464 162.44C55.92 140.008 58.5062 115.838 67.7368 97.3326C69.6177 93.5485 71.7845 89.9133 74.2184 86.4588C74.3254 86.3057 74.4187 86.1434 74.4972 85.974C77.0673 88.477 80.5161 89.8728 84.1035 89.8618C85.011 89.8611 85.9163 89.7758 86.8079 89.6069C89.3073 89.1625 91.6358 88.0376 93.5376 86.3559C95.4393 84.6742 96.8406 82.5008 97.5876 80.0746C100.041 80.7407 102.629 80.7289 105.076 80.0403C107.523 79.3517 109.738 78.0122 111.483 76.1645C113.229 74.3167 114.441 72.0299 114.99 69.5478C115.539 67.0656 115.404 64.4811 114.6 62.0694C116.975 61.165 119.061 59.6332 120.634 57.6373C122.207 55.6414 123.21 53.256 123.534 50.7354C123.859 48.2148 123.494 45.6532 122.478 43.3237C121.462 40.9942 119.833 38.984 117.764 37.5072C119.154 35.3779 119.94 32.9115 120.038 30.3708C120.136 27.83 119.543 25.3103 118.321 23.0803C117.1 20.8502 115.296 18.9935 113.103 17.7079C110.909 16.4224 108.408 15.7563 105.865 15.7807C105.731 13.2488 104.914 10.8004 103.502 8.69507C102.089 6.58973 100.133 4.90596 97.8407 3.82229C95.5485 2.73862 93.0058 2.29546 90.4822 2.5398C87.9586 2.78414 85.5481 3.70687 83.5065 5.21015C81.9117 3.23983 79.8136 1.7377 77.4344 0.862973C75.0553 -0.0117527 72.4838 -0.22648 69.9926 0.241551C67.5013 0.709582 65.1831 1.84293 63.2837 3.52147C61.3842 5.20001 59.9743 7.3612 59.2033 9.77596C56.7501 9.10982 54.162 9.12166 51.7149 9.81025C49.2678 10.4988 47.0534 11.8384 45.3075 13.6861C43.5616 15.5339 42.3496 17.8206 41.8007 20.3028C41.2519 22.7849 41.3866 25.3695 42.1906 27.7811C39.8156 28.686 37.7306 30.2182 36.1576 32.2144C34.5846 34.2107 33.5826 36.5963 33.2584 39.1171C32.9342 41.6379 33.2998 44.1994 34.3165 46.5288C35.3331 48.8581 36.9625 50.8681 39.0313 52.3445C37.6423 54.4734 36.8571 56.9393 36.7591 59.4794C36.6611 62.0194 37.2542 64.5385 38.475 66.768C39.6959 68.9976 41.4988 70.8542 43.6916 72.1399C45.8845 73.4256 48.385 74.0922 50.9269 74.0688C51.0354 76.606 51.8415 79.0642 53.2565 81.173C54.6715 83.2819 56.6407 84.9596 58.9474 86.0219C61.1405 87.0703 63.5674 87.5337 65.9925 87.3671C64.5679 89.6777 63.2317 92.05 62.0221 94.4846C56.1845 106.188 52.8384 119.994 52.0763 134.257C52.0002 102.272 30.7149 75.6993 3.74787 74.5153C3.28363 74.4949 2.82055 74.5761 2.39095 74.7533C1.96135 74.9304 1.5756 75.1992 1.26062 75.5408C0.945637 75.8824 0.709021 76.2887 0.567293 76.7313C0.425565 77.1738 0.382143 77.6419 0.440054 78.103L3.80002 104.834C5.15487 117.233 10.7562 127.806 19.9996 135.415C27.174 141.321 36.5169 145.399 46.4127 146.978C51.2472 156.852 54.6748 166.667 56.3686 175.493C55.7714 178.982 55.6265 182.534 55.9376 186.061H18.136C17.2892 186.061 16.4771 186.397 15.8783 186.996C15.2796 187.594 14.9432 188.407 14.9432 189.253V204.494C14.9432 205.341 15.2796 206.153 15.8783 206.752C16.4771 207.351 17.2892 207.687 18.136 207.687H20.7382L24.8714 261.98C24.9326 262.782 25.2946 263.532 25.8849 264.079C26.4753 264.626 27.2504 264.93 28.0552 264.93H90.8272C91.6187 264.93 92.3821 264.636 92.9691 264.105C93.5561 263.574 93.925 262.844 94.0041 262.056L99.4629 207.687H102.135C102.982 207.687 103.794 207.351 104.393 206.752C104.992 206.153 105.328 205.341 105.328 204.494V189.253C105.328 188.407 104.992 187.594 104.393 186.996C103.794 186.397 102.982 186.061 102.135 186.061H62.3622C62.0024 182.708 62.1338 179.322 62.7522 176.008C63.193 173.632 63.826 171.295 64.6451 169.022C66.2904 164.393 68.6811 160.064 71.7226 156.206L75.7286 156.455C77.9008 156.75 80.0904 156.899 82.2825 156.902C92.1597 156.902 101.107 153.745 108.446 147.611C120.361 137.655 127.697 120.165 128.573 99.6267C128.595 99.1054 128.489 98.5865 128.265 98.1155C128.04 97.6446 127.704 97.2358 127.285 96.925V96.925ZM61.68 80.2497C60.2123 79.5864 58.9985 78.4662 58.2199 77.0563C57.4412 75.6465 57.1394 74.0226 57.3595 72.4271L57.5564 70.7722C57.6153 70.2767 57.5574 69.7743 57.3871 69.3053C57.2169 68.8363 56.9391 68.4137 56.576 68.0715C56.213 67.7292 55.7748 67.4768 55.2965 67.3345C54.8183 67.1922 54.3134 67.1639 53.8223 67.252L52.1301 67.5553C50.5517 67.8385 48.9242 67.618 47.478 66.9253C46.0317 66.2325 44.84 65.1025 44.0714 63.6951C43.3028 62.2877 42.9962 60.6742 43.1951 59.083C43.394 57.4918 44.0883 56.0034 45.1797 54.8285L46.3398 53.5732C46.6784 53.2066 46.9264 52.7658 47.0638 52.2861C47.2012 51.8063 47.2243 51.3011 47.1312 50.8108C47.038 50.3206 46.8313 49.859 46.5275 49.4631C46.2237 49.0672 45.8314 48.748 45.3819 48.5311L43.8424 47.7861C42.3998 47.0869 41.2135 45.9519 40.4512 44.5416C39.6889 43.1313 39.3891 41.5171 39.5943 39.9272C39.7995 38.3372 40.4993 36.852 41.5947 35.6815C42.6901 34.511 44.1257 33.7144 45.6985 33.4043L47.3801 33.0691C47.8694 32.9714 48.3291 32.7605 48.7221 32.4532C49.1152 32.1458 49.4308 31.7506 49.6435 31.2993C49.8563 30.848 49.9603 30.3531 49.9472 29.8543C49.9342 29.3555 49.8044 28.8667 49.5683 28.4272L48.7626 26.9265C48.0076 25.5131 47.7156 23.8983 47.9278 22.31C48.1401 20.7217 48.8459 19.2402 49.9456 18.0747C51.0453 16.9092 52.4833 16.1186 54.0566 15.8145C55.6299 15.5104 57.259 15.7082 58.7138 16.3799L60.273 17.1036C60.7257 17.3138 61.2215 17.4148 61.7204 17.3987C62.2193 17.3825 62.7074 17.2496 63.1457 17.0107C63.5839 16.7717 63.96 16.4333 64.2438 16.0227C64.5276 15.612 64.7111 15.1406 64.7797 14.6462L65.0091 12.9923C65.2264 11.4039 65.9375 9.92412 67.042 8.76212C68.1464 7.60012 69.5882 6.81475 71.1635 6.5171C72.7387 6.21944 74.3677 6.42456 75.82 7.10344C77.2722 7.78232 78.4743 8.90061 79.2562 10.3001L80.0704 11.7635C80.3132 12.1999 80.6551 12.5733 81.0684 12.8536C81.4818 13.1339 81.9552 13.3133 82.4505 13.3774C82.9458 13.4416 83.4492 13.3886 83.9203 13.2228C84.3914 13.057 84.8171 12.783 85.163 12.4229L86.3237 11.2149C87.4341 10.0576 88.8804 9.27877 90.4579 8.98865C92.0353 8.69854 93.6641 8.91181 95.1136 9.59829C96.5632 10.2848 97.7602 11.4097 98.5353 12.8139C99.3104 14.2181 99.6243 15.8305 99.4325 17.4229L99.2357 19.0779C99.1768 19.5733 99.2348 20.0756 99.4051 20.5445C99.5754 21.0135 99.8532 21.436 100.216 21.7782C100.579 22.1204 101.017 22.3727 101.496 22.515C101.974 22.6573 102.479 22.6855 102.97 22.5975L104.662 22.2942C106.239 22.0116 107.866 22.2317 109.311 22.9234C110.756 23.6152 111.948 24.7435 112.718 26.1492C113.487 27.5548 113.795 29.1667 113.599 30.757C113.403 32.3474 112.712 33.836 111.624 35.0125L110.459 36.2683C110.119 36.6345 109.87 37.0753 109.731 37.5554C109.593 38.0354 109.569 38.5413 109.661 39.0322C109.754 39.5232 109.96 39.9855 110.264 40.3821C110.568 40.7787 110.961 41.0985 111.411 41.3157L112.95 42.0607C114.393 42.7593 115.58 43.8936 116.342 45.3035C117.105 46.7133 117.406 48.3272 117.201 49.9171C116.996 51.5069 116.297 52.9923 115.202 54.1631C114.108 55.3339 112.672 56.1309 111.1 56.4415H111.094L109.412 56.7767C108.923 56.8743 108.463 57.0853 108.07 57.3926C107.677 57.6999 107.362 58.0951 107.149 58.5465C106.936 58.9978 106.832 59.4927 106.845 59.9915C106.858 60.4903 106.988 60.979 107.224 61.4186L108.03 62.9193C108.785 64.3327 109.077 65.9474 108.864 67.5355C108.652 69.1236 107.946 70.6049 106.847 71.7703C105.747 72.9357 104.309 73.7263 102.736 74.0305C101.163 74.3348 99.5341 74.1373 98.0793 73.4659L96.5201 72.7422C96.0673 72.532 95.5716 72.431 95.0727 72.4471C94.5738 72.4632 94.0856 72.5961 93.6474 72.8351C93.2092 73.0741 92.8331 73.4125 92.5493 73.8231C92.2655 74.2337 92.082 74.7052 92.0134 75.1996L91.784 76.8535C91.5667 78.4418 90.8555 79.9217 89.7511 81.0837C88.6467 82.2457 87.2049 83.031 85.6296 83.3287C84.0544 83.6263 82.4254 83.4212 80.9731 82.7423C79.5208 82.0635 78.3187 80.9452 77.5369 79.5457L76.7227 78.0822C76.4798 77.6458 76.1379 77.2724 75.7245 76.9921C75.3111 76.7118 74.8377 76.5323 74.3424 76.4682C74.2064 76.4504 74.0693 76.4415 73.9321 76.4416C73.502 76.4417 73.0763 76.5286 72.6806 76.6972C72.285 76.8659 71.9274 77.1127 71.6295 77.4229L70.4689 78.632C69.3746 79.8139 67.9274 80.6101 66.3433 80.9017C64.7592 81.1932 63.1233 80.9645 61.68 80.2497V80.2497ZM23.4974 111.133L35.9204 128.981C38.2166 132.281 40.4723 135.908 42.5887 139.678C27.4837 135.819 12.4091 124.907 10.148 104.114L10.1416 104.061L7.276 81.2613C28.4671 84.4472 44.7923 106.105 45.6496 132.256C44.1883 129.847 42.6845 127.52 41.1615 125.332L28.7412 107.483C28.5019 107.139 28.197 106.844 27.844 106.618C27.491 106.391 27.0967 106.236 26.6837 106.162C26.2708 106.087 25.8472 106.095 25.4373 106.185C25.0273 106.274 24.6391 106.444 24.2946 106.683C23.9502 106.923 23.6564 107.228 23.43 107.581C23.2036 107.935 23.0491 108.329 22.9753 108.742C22.9014 109.155 22.9097 109.579 22.9997 109.989C23.0896 110.398 23.2595 110.786 23.4995 111.131L23.4974 111.133ZM98.9424 192.446V201.301H48.1411C47.2943 201.301 46.4822 201.638 45.8834 202.236C45.2846 202.835 44.9482 203.647 44.9482 204.494C44.9482 205.341 45.2846 206.153 45.8834 206.752C46.4822 207.351 47.2943 207.687 48.1411 207.687H93.0447L87.9387 258.544H31.0145L27.1426 207.687H34.6762C35.523 207.687 36.3351 207.351 36.9339 206.752C37.5327 206.153 37.8691 205.341 37.8691 204.494C37.8691 203.647 37.5327 202.835 36.9339 202.236C36.3351 201.638 35.523 201.301 34.6762 201.301H21.3289V192.446H98.9424ZM104.354 142.711C96.9283 148.916 87.8722 151.433 77.432 150.221L101.049 128.631C101.674 128.06 102.046 127.263 102.084 126.417C102.121 125.571 101.821 124.745 101.25 124.12C100.678 123.495 99.8818 123.123 99.0357 123.085C98.1896 123.047 97.3632 123.347 96.7383 123.919L74.0811 144.631C74.6404 141.113 75.2891 137.891 76.0277 135.011C78.6198 124.873 85.1492 117.064 93.4938 114.12L121.862 104.118C120.249 120.765 113.986 134.661 104.354 142.711Z" fill="#3BB30B" fill-opacity="0.49"/>
<path d="M78.4447 68.4398C84.5646 68.4358 90.4432 66.052 94.8374 61.7924C99.2317 57.5328 101.797 51.7312 101.992 45.6143C102.186 39.4974 99.9938 33.5447 95.8788 29.0148C91.7638 24.4848 86.0484 21.7326 79.941 21.3402C73.8337 20.9477 67.8131 22.9458 63.1521 26.9118C58.4912 30.8779 55.5553 36.5011 54.9651 42.5926C54.375 48.684 56.1769 54.7662 59.9899 59.5532C63.8028 64.3402 69.3279 67.4568 75.3971 68.244C76.4077 68.3741 77.4257 68.4395 78.4447 68.4398ZM64.8403 55.39C62.8868 52.8584 61.6809 49.8306 61.3591 46.6492C61.0373 43.4677 61.6124 40.2597 63.0194 37.3883C64.4264 34.5168 66.6091 32.0965 69.3204 30.4012C72.0317 28.706 75.1634 27.8036 78.3611 27.7961C79.1033 27.7963 79.8447 27.8441 80.5807 27.9392C85.0851 28.5184 89.1751 30.8631 91.9508 34.4576C94.7265 38.0522 95.9607 42.6021 95.3818 47.1066V47.1066C94.9497 50.4661 93.5311 53.622 91.3054 56.1753C89.0797 58.7285 86.1468 60.5644 82.8776 61.4508C79.6085 62.3371 76.1499 62.2342 72.9393 61.1549C69.7287 60.0756 66.9102 58.0685 64.8403 55.3873V55.39Z" fill="#949494" fill-opacity="0.52"/>
<path d="M78.3324 40.9337C79.1792 40.9337 79.9913 40.5973 80.5901 39.9985C81.1889 39.3997 81.5253 38.5876 81.5253 37.7408V35.6122C81.5253 34.7654 81.1889 33.9533 80.5901 33.3545C79.9913 32.7557 79.1792 32.4193 78.3324 32.4193C77.4856 32.4193 76.6735 32.7557 76.0747 33.3545C75.4759 33.9533 75.1395 34.7654 75.1395 35.6122V37.7408C75.1395 38.5876 75.4759 39.3997 76.0747 39.9985C76.6735 40.5973 77.4856 40.9337 78.3324 40.9337Z" fill="#484848" fill-opacity="0.38"/>
<path d="M81.5253 53.7051V51.5765C81.5253 50.7297 81.1889 49.9176 80.5901 49.3188C79.9913 48.7201 79.1792 48.3837 78.3324 48.3837C77.4856 48.3837 76.6735 48.7201 76.0747 49.3188C75.4759 49.9176 75.1395 50.7297 75.1395 51.5765V53.7051C75.1395 54.5519 75.4759 55.3641 76.0747 55.9628C76.6735 56.5616 77.4856 56.898 78.3324 56.898C79.1792 56.898 79.9913 56.5616 80.5901 55.9628C81.1889 55.3641 81.5253 54.5519 81.5253 53.7051Z" fill="#484848" fill-opacity="0.38"/>
<path d="M85.2504 47.8516H87.379C88.2258 47.8516 89.0379 47.5152 89.6367 46.9164C90.2354 46.3176 90.5718 45.5055 90.5718 44.6587C90.5718 43.8119 90.2354 42.9998 89.6367 42.401C89.0379 41.8022 88.2258 41.4658 87.379 41.4658H85.2504C84.4036 41.4658 83.5914 41.8022 82.9927 42.401C82.3939 42.9998 82.0575 43.8119 82.0575 44.6587C82.0575 45.5055 82.3939 46.3176 82.9927 46.9164C83.5914 47.5152 84.4036 47.8516 85.2504 47.8516V47.8516Z" fill="#484848" fill-opacity="0.38"/>
<path d="M71.4145 41.4658H68.7538C67.907 41.4658 67.0949 41.8022 66.4961 42.401C65.8973 42.9998 65.5609 43.8119 65.5609 44.6587C65.5609 45.5055 65.8973 46.3176 66.4961 46.9164C67.0949 47.5152 67.907 47.8516 68.7538 47.8516H71.4145C72.2613 47.8516 73.0734 47.5152 73.6722 46.9164C74.271 46.3176 74.6074 45.5055 74.6074 44.6587C74.6074 43.8119 74.271 42.9998 73.6722 42.401C73.0734 41.8022 72.2613 41.4658 71.4145 41.4658Z" fill="#484848" fill-opacity="0.38"/>
<path d="M63.3018 98.2882C50.8613 98.2917 38.7011 101.984 28.3588 108.898C18.0166 115.812 9.95676 125.638 5.1984 137.132C0.440039 148.627 -0.80314 161.275 1.62605 173.476C4.05524 185.677 10.0477 196.884 18.8458 205.679C27.6438 214.475 38.8523 220.464 51.0541 222.89C63.2559 225.315 75.903 224.069 87.3962 219.307C98.8895 214.545 108.713 206.483 115.624 196.139C122.535 185.794 126.224 173.633 126.224 161.193C126.205 144.512 119.569 128.52 107.773 116.727C95.976 104.934 79.9824 98.3023 63.3018 98.2882V98.2882ZM63.3018 213.435C53.4284 213.437 43.7567 210.64 35.4091 205.367C27.0616 200.094 20.3804 192.562 16.1409 183.645C11.9013 174.728 10.2774 164.792 11.4573 154.989C12.6373 145.186 16.5729 135.919 22.8073 128.263L96.2492 201.705C86.9515 209.303 75.3096 213.448 63.3018 213.435ZM103.814 194.14L30.3722 120.698C40.3962 112.549 53.0857 108.405 65.9874 109.069C78.8891 109.732 91.0866 115.156 100.222 124.291C109.356 133.426 114.78 145.623 115.444 158.525C116.107 171.427 111.964 184.116 103.814 194.14V194.14Z" fill="#DF584F"/>
</svg>
