<svg width="30" height="30" viewBox="0 0 30 30" fill="none" xmlns="http://www.w3.org/2000/svg">
<path d="M15 0C12.0333 0 9.13319 0.879735 6.66645 2.52796C4.19971 4.17618 2.27713 6.51886 1.14181 9.25975C0.00649924 12.0006 -0.290551 15.0166 0.288227 17.9264C0.867006 20.8361 2.29562 23.5088 4.3934 25.6066C6.49119 27.7044 9.16393 29.133 12.0736 29.7118C14.9834 30.2906 17.9994 29.9935 20.7403 28.8582C23.4811 27.7229 25.8238 25.8003 27.472 23.3335C29.1203 20.8668 30 17.9667 30 15C29.9959 11.023 28.4143 7.21004 25.6021 4.39788C22.79 1.58571 18.977 0.00405541 15 0ZM15.9575 22.9787C15.9575 23.2326 15.8566 23.4762 15.677 23.6557C15.4975 23.8353 15.2539 23.9362 15 23.9362C14.7461 23.9362 14.5025 23.8353 14.323 23.6557C14.1434 23.4762 14.0426 23.2326 14.0426 22.9787V14.6808C14.0426 14.4269 14.1434 14.1834 14.323 14.0038C14.5025 13.8243 14.7461 13.7234 15 13.7234C15.2539 13.7234 15.4975 13.8243 15.677 14.0038C15.8566 14.1834 15.9575 14.4269 15.9575 14.6808V22.9787ZM19.9851 21.4851C19.8194 21.6039 19.6209 21.6686 19.417 21.6702C19.215 21.6707 19.0179 21.6072 18.8541 21.4889C18.6904 21.3706 18.5682 21.2035 18.5051 21.0115C18.4421 20.8195 18.4414 20.6125 18.5032 20.4201C18.5649 20.2278 18.6859 20.0598 18.8489 19.9404C19.938 19.1311 20.7443 17.9992 21.1532 16.7054C21.5621 15.4116 21.5528 14.0218 21.1266 12.7336C20.7003 11.4455 19.8789 10.3244 18.7791 9.52981C17.6792 8.73522 16.3569 8.30753 15 8.30753C13.6431 8.30753 12.3208 8.73522 11.2209 9.52981C10.1211 10.3244 9.29967 11.4455 8.87345 12.7336C8.44723 14.0218 8.43791 15.4116 8.84679 16.7054C9.25568 17.9992 10.062 19.1311 11.1511 19.9404C11.2525 20.015 11.3382 20.1089 11.4034 20.2166C11.4685 20.3243 11.5118 20.4439 11.5308 20.5683C11.5498 20.6928 11.544 20.8198 11.5139 20.942C11.4838 21.0643 11.4299 21.1794 11.3553 21.2808C11.2807 21.3823 11.1869 21.468 11.0791 21.5332C10.9714 21.5983 10.8519 21.6416 10.7274 21.6606C10.6029 21.6796 10.476 21.6738 10.3537 21.6437C10.2315 21.6136 10.1163 21.5597 10.0149 21.4851C8.60119 20.4365 7.55411 18.9689 7.02259 17.291C6.49107 15.613 6.50217 13.8102 7.05432 12.1389C7.60647 10.4676 8.67155 9.01302 10.0981 7.98196C11.5246 6.95089 13.2399 6.39589 15 6.39589C16.7601 6.39589 18.4754 6.95089 19.9019 7.98196C21.3285 9.01302 22.3935 10.4676 22.9457 12.1389C23.4978 13.8102 23.5089 15.613 22.9774 17.291C22.4459 18.9689 21.3988 20.4365 19.9851 21.4851Z" fill="#D52F2F"/>
</svg>
