<svg width="56" height="55" viewBox="0 0 56 55" fill="none" xmlns="http://www.w3.org/2000/svg">
<path d="M55.4426 27.5C55.4426 42.6943 43.1369 55 27.9426 55C13.5571 55 1.77134 43.9653 0.558105 29.8687H31.9867L23.6674 38.2458C22.743 39.1702 22.743 40.6723 23.6674 41.5966C24.1295 42.0588 24.7073 42.2899 25.3428 42.2899C25.9783 42.2899 26.556 42.0588 27.0182 41.5966L39.4394 29.1754C40.3638 28.2511 40.3638 26.7489 39.4394 25.8246L27.0182 13.4034C26.0938 12.479 24.5917 12.479 23.6674 13.4034C22.743 14.3277 22.743 15.8298 23.6674 16.7542L32.0445 25.1313H0.558105C1.77134 11.0347 13.5571 0 27.9426 0C43.1369 0 55.4426 12.3057 55.4426 27.5Z" fill="#0B6CB3"/>
</svg>
