<svg width="163" height="337" viewBox="0 0 163 337" fill="none" xmlns="http://www.w3.org/2000/svg">
<path d="M161.349 123.266C160.815 122.871 160.193 122.613 159.536 122.514C158.879 122.415 158.209 122.479 157.582 122.7L115.674 137.474C102.499 142.122 92.2636 154.166 88.2943 169.689C86.3616 177.602 84.9974 185.644 84.2121 193.752C81.1007 197.711 78.4609 202.018 76.346 206.587C70.5894 178.057 73.8785 147.319 85.6177 123.785C88.0098 118.972 90.7654 114.349 93.8607 109.956C93.9968 109.761 94.1155 109.555 94.2154 109.339C97.4839 112.522 101.87 114.297 106.432 114.284C107.586 114.283 108.738 114.174 109.872 113.959C113.05 113.394 116.012 111.964 118.43 109.825C120.849 107.686 122.631 104.922 123.581 101.836C126.701 102.684 129.992 102.669 133.105 101.793C136.217 100.917 139.033 99.2136 141.253 96.8637C143.474 94.5138 145.015 91.6055 145.713 88.4488C146.411 85.2921 146.24 82.0051 145.217 78.938C148.238 77.7878 150.89 75.8398 152.891 73.3014C154.892 70.763 156.166 67.7294 156.579 64.5237C156.992 61.3181 156.528 58.0604 155.236 55.0978C153.943 52.1352 151.872 49.5787 149.241 47.7005C151.009 44.9926 152.008 41.8558 152.133 38.6246C152.258 35.3934 151.503 32.1889 149.95 29.3528C148.396 26.5167 146.103 24.1553 143.313 22.5204C140.523 20.8855 137.342 20.0384 134.108 20.0694C133.938 16.8495 132.899 13.7356 131.102 11.0581C129.306 8.38063 126.818 6.23925 123.903 4.86107C120.988 3.4829 117.754 2.9193 114.545 3.23004C111.335 3.54079 108.27 4.71429 105.673 6.62611C103.645 4.12032 100.977 2.20995 97.9508 1.0975C94.9251 -0.0149468 91.6548 -0.288031 88.4865 0.307197C85.3182 0.902425 82.3699 2.34379 79.9543 4.4785C77.5386 6.61322 75.7455 9.36176 74.7651 12.4328C71.645 11.5856 68.3536 11.6007 65.2415 12.4764C62.1294 13.3521 59.3131 15.0557 57.0927 17.4056C54.8723 19.7555 53.331 22.6637 52.6329 25.8205C51.9349 28.9772 52.1063 32.2642 53.1288 35.3312C50.1083 36.482 47.4566 38.4305 45.4561 40.9694C43.4557 43.5082 42.1814 46.5421 41.769 49.748C41.3567 52.9538 41.8218 56.2115 43.1147 59.1739C44.4076 62.1363 46.4799 64.6925 49.1108 66.5701C47.3444 69.2776 46.3457 72.4137 46.2211 75.6441C46.0966 78.8744 46.8508 82.0781 48.4034 84.9136C49.9561 87.7491 52.2489 90.1103 55.0377 91.7454C57.8265 93.3805 61.0067 94.2283 64.2393 94.1985C64.3773 97.4253 65.4025 100.552 67.202 103.233C69.0016 105.915 71.5059 108.049 74.4395 109.4C77.2286 110.733 80.3151 111.323 83.3993 111.111C81.5876 114.049 79.8882 117.066 78.3499 120.163C70.9258 135.047 66.6702 152.605 65.7011 170.744C65.6043 130.066 38.5343 96.2721 4.23844 94.7663C3.64804 94.7404 3.0591 94.8437 2.51275 95.069C1.9664 95.2942 1.47581 95.6361 1.07523 96.0705C0.674643 96.505 0.373722 97.0217 0.193477 97.5845C0.0132316 98.1473 -0.0419919 98.7427 0.0316583 99.3291L4.30477 133.324C6.02782 149.093 13.1515 162.54 24.9069 172.216C34.0311 179.728 45.9131 184.914 58.4983 186.922C64.6467 199.479 69.0058 211.962 71.1599 223.186C70.4004 227.624 70.2162 232.141 70.6117 236.626H22.5369C21.4599 236.626 20.4271 237.054 19.6656 237.816C18.9041 238.577 18.4763 239.61 18.4763 240.687V260.069C18.4763 261.146 18.9041 262.179 19.6656 262.941C20.4271 263.702 21.4599 264.13 22.5369 264.13H25.8463L31.1027 333.178C31.1805 334.199 31.6409 335.152 32.3917 335.848C33.1424 336.544 34.1283 336.93 35.1518 336.93H114.983C115.99 336.93 116.961 336.556 117.707 335.881C118.454 335.205 118.923 334.277 119.024 333.275L125.966 264.13H129.365C130.442 264.13 131.474 263.702 132.236 262.941C132.997 262.179 133.425 261.146 133.425 260.069V240.687C133.425 239.61 132.997 238.577 132.236 237.816C131.474 237.054 130.442 236.626 129.365 236.626H78.7824C78.3248 232.363 78.492 228.056 79.2784 223.841C79.839 220.82 80.644 217.848 81.6857 214.957C83.7782 209.07 86.8186 203.564 90.6867 198.658L95.7814 198.974C98.544 199.35 101.329 199.54 104.116 199.543C116.678 199.543 128.056 195.528 137.39 187.728C152.543 175.065 161.873 152.823 162.987 126.702C163.016 126.039 162.881 125.379 162.595 124.78C162.31 124.181 161.882 123.662 161.349 123.266V123.266ZM77.9147 102.059C76.0482 101.216 74.5046 99.7909 73.5143 97.9979C72.524 96.2049 72.1402 94.1397 72.4201 92.1107L72.6705 90.0059C72.7455 89.3758 72.6718 88.7369 72.4552 88.1404C72.2387 87.544 71.8854 87.0065 71.4237 86.5713C70.962 86.136 70.4047 85.815 69.7965 85.634C69.1883 85.453 68.5462 85.4171 67.9216 85.5291L65.7695 85.9148C63.7621 86.2749 61.6923 85.9946 59.8531 85.1135C58.0138 84.2325 56.4982 82.7953 55.5207 81.0055C54.5432 79.2156 54.1534 77.1636 54.4063 75.14C54.6593 73.1163 55.5422 71.2235 56.9302 69.7293L58.4056 68.1328C58.8362 67.6666 59.1515 67.1059 59.3263 66.4958C59.5011 65.8857 59.5305 65.2432 59.412 64.6197C59.2936 63.9962 59.0306 63.4091 58.6443 62.9056C58.2579 62.4021 57.759 61.9962 57.1874 61.7204L55.2295 60.7729C53.3948 59.8837 51.8861 58.4402 50.9166 56.6467C49.9471 54.8531 49.5659 52.8002 49.8269 50.7782C50.0878 48.7561 50.9778 46.8673 52.3709 45.3786C53.764 43.89 55.5897 42.8769 57.5901 42.4826L59.7286 42.0562C60.3509 41.9321 60.9355 41.6638 61.4354 41.273C61.9353 40.8821 62.3366 40.3795 62.6072 39.8055C62.8777 39.2316 63.01 38.6021 62.9934 37.9678C62.9768 37.3335 62.8118 36.7118 62.5115 36.1528L61.4869 34.2443C60.5266 32.4468 60.1552 30.3931 60.4252 28.3732C60.6951 26.3532 61.5927 24.4691 62.9913 22.9868C64.3898 21.5046 66.2187 20.4991 68.2196 20.1124C70.2204 19.7256 72.2922 19.9772 74.1424 20.8315L76.1254 21.7519C76.7012 22.0191 77.3316 22.1476 77.9661 22.1271C78.6006 22.1066 79.2214 21.9376 79.7788 21.6337C80.3361 21.3298 80.8144 20.8994 81.1753 20.3772C81.5363 19.8549 81.7697 19.2553 81.8569 18.6266L82.1486 16.5232C82.425 14.5032 83.3294 12.6212 84.734 11.1434C86.1386 9.66561 87.9722 8.6668 89.9756 8.28825C91.9789 7.9097 94.0506 8.17056 95.8976 9.03394C97.7445 9.89732 99.2733 11.3195 100.268 13.0994L101.303 14.9605C101.612 15.5155 102.047 15.9904 102.572 16.3468C103.098 16.7033 103.7 16.9315 104.33 17.013C104.96 17.0946 105.6 17.0272 106.199 16.8164C106.798 16.6055 107.34 16.2571 107.78 15.799L109.256 14.2628C110.668 12.7909 112.507 11.8005 114.514 11.4315C116.52 11.0625 118.591 11.3338 120.435 12.2068C122.278 13.0799 123.801 14.5105 124.786 16.2963C125.772 18.0822 126.171 20.1327 125.927 22.1579L125.677 24.2627C125.602 24.8927 125.676 25.5316 125.892 26.1279C126.109 26.7243 126.462 27.2616 126.924 27.6968C127.386 28.132 127.943 28.453 128.551 28.6339C129.159 28.8149 129.801 28.8508 130.426 28.7388L132.578 28.3531C134.584 27.9937 136.652 28.2736 138.49 29.1533C140.329 30.0331 141.844 31.4681 142.823 33.2557C143.801 35.0434 144.194 37.0933 143.944 39.1159C143.694 41.1385 142.816 43.0316 141.432 44.5278L139.95 46.125C139.518 46.5907 139.201 47.1513 139.025 47.7618C138.849 48.3723 138.818 49.0156 138.936 49.64C139.054 50.2644 139.316 50.8524 139.703 51.3568C140.089 51.8612 140.589 52.2679 141.161 52.5441L143.119 53.4916C144.953 54.38 146.463 55.8226 147.433 57.6156C148.403 59.4085 148.785 61.4611 148.525 63.483C148.265 65.505 147.375 67.394 145.983 68.883C144.591 70.3719 142.765 71.3856 140.765 71.7805H140.758L138.619 72.2069C137.997 72.3311 137.413 72.5993 136.913 72.9902C136.413 73.3811 136.011 73.8836 135.741 74.4576C135.47 75.0316 135.338 75.661 135.355 76.2954C135.371 76.9297 135.536 77.5513 135.837 78.1104L136.862 80.0188C137.822 81.8163 138.193 83.8699 137.923 85.8896C137.652 87.9093 136.755 89.7932 135.356 91.2753C133.958 92.7574 132.129 93.7629 130.129 94.1498C128.128 94.5367 126.057 94.2855 124.206 93.4317L122.223 92.5113C121.648 92.2441 121.017 92.1155 120.383 92.1361C119.748 92.1566 119.127 92.3256 118.57 92.6295C118.013 92.9334 117.534 93.3638 117.173 93.886C116.813 94.4082 116.579 95.0078 116.492 95.6366L116.2 97.74C115.924 99.76 115.019 101.642 113.615 103.12C112.21 104.598 110.377 105.596 108.373 105.975C106.37 106.353 104.298 106.093 102.451 105.229C100.604 104.366 99.0754 102.944 98.0811 101.164L97.0456 99.3027C96.7367 98.7476 96.3019 98.2727 95.7762 97.9162C95.2504 97.5597 94.6484 97.3315 94.0184 97.25C93.8454 97.2273 93.6711 97.216 93.4966 97.2162C92.9496 97.2162 92.4083 97.3268 91.9051 97.5413C91.4018 97.7557 90.9471 98.0696 90.5683 98.4642L89.0922 100.002C87.7006 101.505 85.86 102.517 83.8455 102.888C81.8309 103.259 79.7504 102.968 77.9147 102.059V102.059ZM29.3553 141.335L45.1545 164.035C48.0747 168.231 50.9435 172.844 53.635 177.638C34.425 172.731 15.2535 158.853 12.3779 132.409L12.3698 132.342L8.72541 103.346C35.6756 107.397 56.4375 134.941 57.5278 168.199C55.6694 165.135 53.7568 162.176 51.8199 159.393L36.0242 136.694C35.7199 136.256 35.3322 135.882 34.8832 135.593C34.4342 135.305 33.9328 135.108 33.4076 135.013C32.8824 134.919 32.3437 134.929 31.8224 135.042C31.301 135.156 30.8072 135.372 30.3692 135.677C29.9312 135.981 29.5575 136.369 29.2696 136.819C28.9817 137.268 28.7852 137.77 28.6912 138.295C28.5973 138.82 28.6079 139.359 28.7223 139.88C28.8367 140.401 29.0527 140.895 29.358 141.333L29.3553 141.335ZM125.304 244.747V256.009H60.6964C59.6195 256.009 58.5866 256.437 57.8251 257.198C57.0636 257.96 56.6358 258.993 56.6358 260.069C56.6358 261.146 57.0636 262.179 57.8251 262.941C58.5866 263.702 59.6195 264.13 60.6964 264.13H117.803L111.31 328.809H38.9153L33.9912 264.13H43.5722C44.6491 264.13 45.6819 263.702 46.4434 262.941C47.205 262.179 47.6328 261.146 47.6328 260.069C47.6328 258.993 47.205 257.96 46.4434 257.198C45.6819 256.437 44.6491 256.009 43.5722 256.009H26.5975V244.747H125.304ZM132.187 181.496C122.742 189.387 111.225 192.588 97.9477 191.047L127.983 163.589C128.777 162.863 129.251 161.85 129.299 160.774C129.347 159.698 128.965 158.647 128.239 157.852C127.512 157.057 126.499 156.584 125.423 156.536C124.347 156.488 123.296 156.869 122.501 157.596L93.6861 183.938C94.3974 179.464 95.2224 175.366 96.1618 171.703C99.4583 158.81 107.762 148.879 118.375 145.135L154.452 132.414C152.401 153.586 144.436 171.257 132.187 181.496Z" fill="#3BB30B" fill-opacity="0.49"/>
<path d="M99.2356 87.0396C107.019 87.0346 114.495 84.003 120.083 78.5857C125.672 73.1684 128.935 65.7902 129.182 58.0109C129.429 50.2316 126.641 42.6611 121.408 36.9C116.174 31.139 108.906 27.6389 101.139 27.1398C93.3714 26.6407 85.7146 29.1817 79.787 34.2256C73.8593 39.2695 70.1255 46.421 69.375 54.1679C68.6245 61.9148 70.9161 69.65 75.7653 75.7379C80.6145 81.8259 87.6412 85.7895 95.3597 86.7906C96.645 86.9561 97.9396 87.0393 99.2356 87.0396ZM81.934 70.4433C79.4495 67.2237 77.9159 63.373 77.5066 59.327C77.0974 55.2809 77.8288 51.2011 79.6182 47.5492C81.4076 43.8974 84.1834 40.8193 87.6316 38.6633C91.0798 36.5074 95.0626 35.3597 99.1293 35.3502C100.073 35.3504 101.016 35.4112 101.952 35.5322C107.681 36.2687 112.882 39.2507 116.412 43.8221C119.942 48.3936 121.512 54.1801 120.776 59.9087V59.9087C120.226 64.1812 118.422 68.1948 115.591 71.442C112.761 74.6891 109.031 77.024 104.873 78.1512C100.716 79.2785 96.3172 79.1475 92.234 77.7749C88.1509 76.4023 84.5664 73.8497 81.934 70.4399V70.4433Z" fill="#949494" fill-opacity="0.52"/>
<path d="M99.0928 52.0583C100.17 52.0583 101.203 51.6304 101.964 50.8689C102.726 50.1074 103.153 49.0746 103.153 47.9977V45.2906C103.153 44.2136 102.726 43.1808 101.964 42.4193C101.203 41.6578 100.17 41.23 99.0928 41.23C98.0159 41.23 96.9831 41.6578 96.2215 42.4193C95.46 43.1808 95.0322 44.2136 95.0322 45.2906V47.9977C95.0322 49.0746 95.46 50.1074 96.2215 50.8689C96.9831 51.6304 98.0159 52.0583 99.0928 52.0583Z" fill="#484848" fill-opacity="0.38"/>
<path d="M103.153 68.3006V65.5936C103.153 64.5166 102.726 63.4838 101.964 62.7223C101.203 61.9608 100.17 61.533 99.0928 61.533C98.0159 61.533 96.9831 61.9608 96.2215 62.7223C95.46 63.4838 95.0322 64.5166 95.0322 65.5936V68.3006C95.0322 69.3776 95.46 70.4104 96.2215 71.1719C96.9831 71.9334 98.0159 72.3612 99.0928 72.3612C100.17 72.3612 101.203 71.9334 101.964 71.1719C102.726 70.4104 103.153 69.3776 103.153 68.3006Z" fill="#484848" fill-opacity="0.38"/>
<path d="M107.891 60.8562H110.598C111.675 60.8562 112.708 60.4284 113.469 59.6669C114.231 58.9054 114.658 57.8725 114.658 56.7956C114.658 55.7187 114.231 54.6858 113.469 53.9243C112.708 53.1628 111.675 52.735 110.598 52.735H107.891C106.814 52.735 105.781 53.1628 105.02 53.9243C104.258 54.6858 103.83 55.7187 103.83 56.7956C103.83 57.8725 104.258 58.9054 105.02 59.6669C105.781 60.4284 106.814 60.8562 107.891 60.8562V60.8562Z" fill="#484848" fill-opacity="0.38"/>
<path d="M90.2948 52.735H86.9109C85.834 52.735 84.8012 53.1628 84.0397 53.9243C83.2782 54.6858 82.8503 55.7187 82.8503 56.7956C82.8503 57.8725 83.2782 58.9054 84.0397 59.6669C84.8012 60.4284 85.834 60.8562 86.9109 60.8562H90.2948C91.3717 60.8562 92.4046 60.4284 93.1661 59.6669C93.9276 58.9054 94.3554 57.8725 94.3554 56.7956C94.3554 55.7187 93.9276 54.6858 93.1661 53.9243C92.4046 53.1628 91.3717 52.735 90.2948 52.735Z" fill="#484848" fill-opacity="0.38"/>
<path d="M79.9774 125C64.1558 125.004 48.6909 129.7 35.5379 138.493C22.385 147.287 12.1347 159.783 6.08318 174.401C0.0316386 189.019 -1.5494 205.104 1.53997 220.621C4.62935 236.138 12.2504 250.391 23.4395 261.577C34.6286 272.762 48.8833 280.379 64.4011 283.464C79.919 286.549 96.0032 284.964 110.62 278.908C125.237 272.852 137.73 262.599 146.519 249.443C155.309 236.288 160 220.822 160 205C159.976 183.786 151.537 163.448 136.534 148.45C121.531 133.452 101.191 125.018 79.9774 125V125ZM79.9774 271.44C67.4206 271.443 55.1205 267.885 44.5043 261.179C33.8881 254.473 25.3911 244.895 19.9995 233.554C14.6078 222.214 12.5424 209.577 14.0431 197.11C15.5438 184.644 20.5489 172.858 28.4777 163.121L121.879 256.522C110.054 266.186 95.2485 271.457 79.9774 271.44ZM131.5 246.902L38.0985 153.5C50.8467 143.136 66.9848 137.866 83.3928 138.71C99.8008 139.554 115.313 146.452 126.931 158.069C138.548 169.687 145.446 185.199 146.29 201.607C147.134 218.015 141.864 234.153 131.5 246.902V246.902Z" fill="#DF584F"/>
</svg>
