<svg width="30" height="30" viewBox="0 0 30 30" fill="none" xmlns="http://www.w3.org/2000/svg">
<path d="M29.3023 30H0.697674C0.312558 30 0 29.6863 0 29.2997V21.1059C0 20.7194 0.312558 20.4057 0.697674 20.4057C1.08279 20.4057 1.39535 20.7194 1.39535 21.1059V28.5995H28.6047V21.2281C28.6047 20.8416 28.9172 20.5279 29.3023 20.5279C29.6874 20.5279 30 20.8416 30 21.2281V29.3001C30 29.6866 29.6874 30 29.3023 30ZM14.9386 25.6346C14.744 25.6346 14.5587 25.5533 14.4265 25.4098L7.08523 17.446C6.8236 17.1621 6.8407 16.7191 7.1236 16.4562C7.40686 16.1936 7.84744 16.2108 8.10977 16.4947L14.2343 23.1392V0.700264C14.2343 0.313718 14.5469 0 14.932 0C15.3171 0 15.6297 0.313718 15.6297 0.700264V23.1542L21.7706 16.4947C22.0322 16.2108 22.4738 16.1936 22.7564 16.4565C23.0393 16.7191 23.0564 17.1624 22.7944 17.446L15.4507 25.4098C15.3185 25.5533 15.1329 25.6346 14.9386 25.6346Z" fill="#636363"/>
</svg>
