<svg width="117" height="79" viewBox="0 0 117 79" fill="none" xmlns="http://www.w3.org/2000/svg">
<path d="M14.7565 14.9344C15.9284 15.3906 17.031 15.7774 18.0641 16.0947C19.1169 16.4119 20.2394 16.5707 21.4313 16.5707C22.3053 16.5707 22.8914 16.4616 23.1894 16.2434C23.5072 16.0054 23.6662 15.7179 23.6662 15.3807C23.6662 15.0237 23.5172 14.7361 23.2192 14.5179C22.941 14.2799 22.3649 14.0221 21.4909 13.7444C20.438 13.4073 19.4744 13.0602 18.6005 12.7032C17.7461 12.3462 17.0112 11.9099 16.3954 11.3942C15.7994 10.8587 15.3325 10.224 14.9949 9.4902C14.677 8.73653 14.5181 7.80438 14.5181 6.69372C14.5181 5.62272 14.7267 4.67073 15.1439 3.83773C15.561 3.00474 16.147 2.31057 16.902 1.75524C17.6767 1.18008 18.6103 0.743745 19.703 0.446247C20.7956 0.14875 22.0173 0 23.3682 0C25.1759 0 26.7452 0.158665 28.0763 0.475996C29.4271 0.773495 30.5296 1.07099 31.3839 1.36849L29.7748 6.48547C29.4966 6.36647 29.1589 6.23755 28.7617 6.09872C28.3643 5.95989 27.9372 5.83097 27.4803 5.71197C27.0234 5.59297 26.5366 5.4938 26.0202 5.41447C25.5235 5.33514 25.0269 5.29547 24.5303 5.29547C23.835 5.29547 23.2986 5.40455 22.9212 5.62272C22.5437 5.84089 22.355 6.12847 22.355 6.48547C22.355 6.68379 22.3848 6.86229 22.4444 7.02096C22.5239 7.15979 22.6927 7.30854 22.951 7.46721C23.2092 7.60604 23.5966 7.77463 24.1131 7.97296C24.6495 8.15146 25.3845 8.38946 26.3182 8.68696C28.0465 9.24228 29.3576 10.0059 30.2516 10.9777C31.1654 11.9297 31.6223 13.2585 31.6223 14.9642C31.6223 17.3639 30.8674 19.1589 29.3576 20.3489C27.8478 21.5389 25.6427 22.1339 22.7424 22.1339C21.2723 22.1339 19.852 22.0149 18.4813 21.7769C17.1304 21.5389 15.8888 21.2216 14.7565 20.8249V14.9344ZM34.3854 9.59433H32.888V5.80122H39.682V14.7931C39.682 15.3435 39.7192 15.7897 39.7937 16.1319C39.8682 16.474 39.98 16.7417 40.129 16.9351C40.278 17.1285 40.4717 17.2624 40.71 17.3367C40.9484 17.3962 41.239 17.426 41.5816 17.426C41.9094 17.426 42.1925 17.3962 42.4309 17.3367C42.6842 17.2624 42.8853 17.1285 43.0343 16.9351C43.1833 16.7417 43.295 16.474 43.3695 16.1319C43.444 15.7897 43.4813 15.3435 43.4813 14.7931V5.80122H50.1188V9.59433H48.6215V14.7485C48.6215 15.9534 48.4948 17.0095 48.2416 17.9168C48.0032 18.8242 47.6083 19.5828 47.0571 20.1927C46.5058 20.7877 45.7832 21.2414 44.8892 21.5538C43.9953 21.8513 42.8928 22 41.5816 22C40.2556 22 39.1307 21.8513 38.207 21.5538C37.2981 21.2414 36.5606 20.7877 35.9945 20.1927C35.4283 19.5828 35.0186 18.8242 34.7653 17.9168C34.512 17.0095 34.3854 15.9534 34.3854 14.7485V9.59433ZM51.2863 17.8053H52.7837V9.59433H51.2863V5.80122H59.3989C60.4121 5.80122 61.306 5.92766 62.0808 6.18053C62.8704 6.41853 63.526 6.76809 64.0475 7.22921C64.5838 7.67546 64.9861 8.2184 65.2543 8.85802C65.5225 9.49764 65.6566 10.2042 65.6566 10.9777C65.6566 11.8107 65.5448 12.5544 65.3213 13.2089C65.0978 13.8486 64.7403 14.3841 64.2486 14.8154C63.7569 15.2468 63.1237 15.574 62.349 15.7972C61.5891 16.0203 60.6728 16.1319 59.6001 16.1319H57.7675V17.8053H59.3989V21.5984H51.2863V17.8053ZM59.2201 12.4057C60.1588 12.4057 60.6281 11.9818 60.6281 11.1339C60.6281 10.286 60.1588 9.86207 59.2201 9.86207H57.7898V12.4057H59.2201ZM66.8039 17.8053H68.3013V9.59433H66.8039V5.80122H79.431V9.88439H73.5086V11.4686H78.6488V15.5517H73.5086V17.5152H79.8556V21.5984H66.8039V17.8053ZM81.2056 16.5409H83.2021V5.59297H81.2056V0.535498H92.7077C94.0586 0.535498 95.2406 0.70408 96.2537 1.04124C97.2868 1.35858 98.141 1.81474 98.8164 2.40974C99.4919 3.00473 99.9985 3.71873 100.336 4.55173C100.674 5.36489 100.843 6.2673 100.843 7.25896C100.843 7.89363 100.783 8.45888 100.664 8.9547C100.545 9.4307 100.356 9.86703 100.098 10.2637C99.8593 10.6405 99.5515 10.9876 99.174 11.3049C98.8164 11.6024 98.3894 11.89 97.8926 12.1677C98.3496 12.5247 98.6972 12.9511 98.9356 13.4469C99.1939 13.9428 99.4223 14.4287 99.6209 14.9047C99.8395 15.3609 100.078 15.7476 100.336 16.0649C100.594 16.3822 100.982 16.5409 101.498 16.5409H102.482V21.5984H97.3563C96.6213 21.5984 96.0055 21.4397 95.5088 21.1224C95.0122 20.8051 94.595 20.3984 94.2573 19.9026C93.9196 19.3869 93.6315 18.8217 93.3931 18.2069C93.1547 17.5921 92.9263 16.9971 92.7077 16.4219C92.4893 15.8467 92.241 15.3212 91.9628 14.8452C91.7046 14.3692 91.3868 14.0122 91.0092 13.7742H89.7875V16.5409H91.6052V21.5984H81.2056V16.5409ZM91.784 9.16295C92.3999 9.16295 92.8667 9.03403 93.1845 8.77621C93.5025 8.51838 93.6613 8.10188 93.6613 7.52671C93.6613 6.43589 93.0355 5.89047 91.784 5.89047H89.8173V9.16295H91.784ZM29.7279 73.5119H31.7244V62.5639H29.7279V57.5065H41.1406V62.5639H38.8462V73.0656H46.7427V78.5693H29.7279V73.5119ZM48.1 74.7762H49.5527L53.4637 62.7722H60.4365L64.3252 74.7762H65.7778V78.5693H60.0789L59.2297 75.5795H54.2683L53.419 78.5693H48.1V74.7762ZM58.0452 71.474L56.749 67.0115L55.4527 71.474H58.0452ZM67.1286 73.5119H69.1251V62.5639H67.1286V57.5065H78.303C79.8723 57.5065 81.1636 57.6652 82.1767 57.9825C83.1899 58.28 83.9745 58.6865 84.5308 59.2022C85.1068 59.698 85.5042 60.2732 85.7227 60.9277C85.9411 61.5822 86.0505 62.2466 86.0505 62.9209C86.0505 64.0911 85.7624 65.0332 85.1864 65.7472C84.6102 66.4612 83.9447 66.9769 83.1899 67.2942C84.481 67.6909 85.4545 68.3552 86.1101 69.2874C86.7855 70.2196 87.1233 71.2409 87.1233 72.3516C87.1233 74.3349 86.4677 75.8721 85.1566 76.9629C83.8454 78.0339 81.9582 78.5693 79.4949 78.5693H67.1286V73.5119ZM77.4686 65.5984C78.1638 65.5984 78.6307 65.4497 78.8691 65.1522C79.1273 64.8547 79.2565 64.4779 79.2565 64.0217C79.2565 63.6052 79.1273 63.2581 78.8691 62.9804C78.6307 62.6829 78.1638 62.5342 77.4686 62.5342H75.7701V65.5984H77.4686ZM77.7368 73.4226C78.3724 73.4226 78.8691 73.2639 79.2267 72.9466C79.6041 72.6293 79.7929 72.1929 79.7929 71.6376C79.7929 71.0624 79.6041 70.6261 79.2267 70.3286C78.8691 70.0114 78.3724 69.8526 77.7368 69.8526H75.7701V73.4226H77.7368Z" fill="black"/>
<path d="M16.8651 42.9302H14.2277V37.8613H24.5919V51.1949C22.9079 52.1989 21.1743 52.8846 19.3912 53.2519C17.6329 53.6192 15.7507 53.8029 13.7447 53.8029C11.4663 53.8029 9.46033 53.4723 7.72677 52.8111C6.01797 52.1499 4.58158 51.2194 3.41761 50.0195C2.27841 48.8195 1.424 47.387 0.854403 45.7219C0.2848 44.0322 0 42.1711 0 40.1386C0 38.0571 0.321948 36.1838 0.965846 34.5187C1.63451 32.829 2.58797 31.3965 3.82624 30.221C5.0645 29.0211 6.57519 28.1028 8.35829 27.4662C10.1414 26.805 12.1721 26.4744 14.4505 26.4744C15.5897 26.4744 16.6547 26.5601 17.6452 26.7315C18.6359 26.903 19.5398 27.111 20.357 27.356C21.1743 27.6009 21.9049 27.8702 22.5487 28.1641C23.1927 28.4579 23.7375 28.7272 24.1832 28.9722L21.3229 35.2533C20.5304 34.7391 19.676 34.3228 18.7596 34.0044C17.8681 33.6616 16.828 33.4902 15.6392 33.4902C14.6239 33.4902 13.7323 33.6616 12.9646 34.0044C12.1969 34.3228 11.5654 34.788 11.0701 35.4002C10.5748 35.9879 10.2033 36.698 9.95565 37.5307C9.70799 38.3388 9.58417 39.2203 9.58417 40.1754C9.58417 41.0569 9.68322 41.8896 9.88135 42.6731C10.0795 43.4567 10.389 44.1424 10.8101 44.7301C11.2558 45.3178 11.8007 45.7831 12.4446 46.1259C13.0885 46.4687 13.8562 46.6402 14.7477 46.6402C15.1688 46.6402 15.5774 46.6156 15.9736 46.5667C16.3947 46.5178 16.6918 46.4687 16.8651 46.4198V42.9302ZM27.5891 48.1462H29.5802V37.3323H27.5891V32.3368H39.0604C40.4077 32.3368 41.5864 32.5033 42.5969 32.8363C43.6271 33.1497 44.4791 33.6004 45.1526 34.1881C45.8262 34.7758 46.3314 35.481 46.6683 36.3038C47.0051 37.1071 47.1735 37.9983 47.1735 38.9779C47.1735 39.6048 47.1141 40.1632 46.9952 40.6529C46.8763 41.123 46.688 41.554 46.4305 41.9458C46.1928 42.318 45.8857 42.6609 45.5093 42.9743C45.1526 43.2682 44.7266 43.5522 44.2314 43.8265C44.6871 44.1791 45.0338 44.6004 45.2715 45.0901C45.529 45.5798 45.757 46.0598 45.955 46.53C46.173 46.9806 46.4108 47.3626 46.6683 47.676C46.9258 47.9894 47.3121 48.1462 47.8273 48.1462H48.808V53.1417H43.6964C42.9634 53.1417 42.3492 52.9849 41.8539 52.6715C41.3587 52.3581 40.9426 51.9564 40.6057 51.4667C40.2689 50.9573 39.9817 50.399 39.7439 49.7918C39.5062 49.1845 39.2784 48.5968 39.0604 48.0286C38.8424 47.4605 38.5949 46.9414 38.3174 46.4712C38.0599 46.001 37.7428 45.6484 37.3664 45.4133H36.148V48.1462H37.9608V53.1417H27.5891V48.1462ZM38.1391 40.8586C38.7533 40.8586 39.2189 40.7312 39.5359 40.4766C39.8528 40.2219 40.0114 39.8105 40.0114 39.2424C40.0114 38.165 39.3873 37.6262 38.1391 37.6262H36.1777V40.8586H38.1391ZM50.3422 48.1462H52.3333V37.3323H50.3422V32.3368H67.1331V37.7143H59.2577V39.8007H66.0929V45.1782H59.2577V47.7642H67.6977V53.1417H50.3422V48.1462ZM69.2355 48.1462H71.2266V37.3323H69.2355V32.3368H86.0264V37.7143H78.151V39.8007H84.9862V45.1782H78.151V47.7642H86.591V53.1417H69.2355V48.1462ZM88.3218 46.8973H90.8107V33.38H88.3218V27.1356H99.6519L106.524 40.1386V27.1356H117V33.38H114.511V53.1417H106.004L98.7232 40.1754V53.1417H88.3218V46.8973Z" fill="#3BB30B"/>
</svg>
