<svg width="43" height="43" viewBox="0 0 43 43" fill="none" xmlns="http://www.w3.org/2000/svg">
<path d="M10.2648 13.002H6.15893C5.97744 13.002 5.80338 13.0741 5.67504 13.2025C5.54671 13.3308 5.47461 13.5049 5.47461 13.6864V17.7923C5.47461 17.9738 5.54671 18.1478 5.67504 18.2762C5.80338 18.4045 5.97744 18.4766 6.15893 18.4766H10.2648C10.4463 18.4766 10.6204 18.4045 10.7487 18.2762C10.8771 18.1478 10.9492 17.9738 10.9492 17.7923V13.6864C10.9492 13.5049 10.8771 13.3308 10.7487 13.2025C10.6204 13.0741 10.4463 13.002 10.2648 13.002ZM9.58052 17.108H6.84325V14.3707H9.58052V17.108Z" fill="#3BB30B"/>
<path d="M17.1086 13.002H13.0027C12.8212 13.002 12.6471 13.0741 12.5188 13.2025C12.3905 13.3308 12.3184 13.5049 12.3184 13.6864V17.7923C12.3184 17.9738 12.3905 18.1478 12.5188 18.2762C12.6471 18.4045 12.8212 18.4766 13.0027 18.4766H17.1086C17.2901 18.4766 17.4641 18.4045 17.5925 18.2762C17.7208 18.1478 17.7929 17.9738 17.7929 17.7923V13.6864C17.7929 13.5049 17.7208 13.3308 17.5925 13.2025C17.4641 13.0741 17.2901 13.002 17.1086 13.002ZM16.4243 17.108H13.687V14.3707H16.4243V17.108Z" fill="#3BB30B"/>
<path d="M24.6352 13.6864C24.6352 13.5049 24.5631 13.3308 24.4348 13.2025C24.3064 13.0741 24.1324 13.002 23.9509 13.002H19.845C19.6635 13.002 19.4894 13.0741 19.3611 13.2025C19.2327 13.3308 19.1606 13.5049 19.1606 13.6864V17.7923C19.1606 17.9738 19.2327 18.1478 19.3611 18.2762C19.4894 18.4045 19.6635 18.4766 19.845 18.4766H23.9509C24.1324 18.4766 24.3064 18.4045 24.4348 18.2762C24.5631 18.1478 24.6352 17.9738 24.6352 17.7923V13.6864ZM23.2666 17.108H20.5293V14.3707H23.2666V17.108Z" fill="#B30B52"/>
<path d="M26.6887 18.4766H30.7946C30.9761 18.4766 31.1502 18.4045 31.2785 18.2762C31.4068 18.1478 31.4789 17.9738 31.4789 17.7923V13.6864C31.4789 13.5049 31.4068 13.3308 31.2785 13.2025C31.1502 13.0741 30.9761 13.002 30.7946 13.002H26.6887C26.5072 13.002 26.3332 13.0741 26.2048 13.2025C26.0765 13.3308 26.0044 13.5049 26.0044 13.6864V17.7923C26.0044 17.9738 26.0765 18.1478 26.2048 18.2762C26.3332 18.4045 26.5072 18.4766 26.6887 18.4766ZM27.373 14.3707H30.1103V17.108H27.373V14.3707Z" fill="#3BB30B"/>
<path d="M10.2648 19.8452H6.15893C5.97744 19.8452 5.80338 19.9173 5.67504 20.0457C5.54671 20.174 5.47461 20.3481 5.47461 20.5295V24.6355C5.47461 24.817 5.54671 24.991 5.67504 25.1193C5.80338 25.2477 5.97744 25.3198 6.15893 25.3198H10.2648C10.4463 25.3198 10.6204 25.2477 10.7487 25.1193C10.8771 24.991 10.9492 24.817 10.9492 24.6355V20.5295C10.9492 20.3481 10.8771 20.174 10.7487 20.0457C10.6204 19.9173 10.4463 19.8452 10.2648 19.8452ZM9.58052 23.9511H6.84325V21.2139H9.58052V23.9511Z" fill="#3BB30B"/>
<path d="M17.1086 19.8452H13.0027C12.8212 19.8452 12.6471 19.9173 12.5188 20.0457C12.3905 20.174 12.3184 20.3481 12.3184 20.5295V24.6355C12.3184 24.817 12.3905 24.991 12.5188 25.1193C12.6471 25.2477 12.8212 25.3198 13.0027 25.3198H17.1086C17.2901 25.3198 17.4641 25.2477 17.5925 25.1193C17.7208 24.991 17.7929 24.817 17.7929 24.6355V20.5295C17.7929 20.3481 17.7208 20.174 17.5925 20.0457C17.4641 19.9173 17.2901 19.8452 17.1086 19.8452ZM16.4243 23.9511H13.687V21.2139H16.4243V23.9511Z" fill="#3BB30B"/>
<path d="M10.2648 26.6884H6.15893C5.97744 26.6884 5.80338 26.7605 5.67504 26.8888C5.54671 27.0172 5.47461 27.1912 5.47461 27.3727V31.4786C5.47461 31.6601 5.54671 31.8342 5.67504 31.9625C5.80338 32.0909 5.97744 32.163 6.15893 32.163H10.2648C10.4463 32.163 10.6204 32.0909 10.7487 31.9625C10.8771 31.8342 10.9492 31.6601 10.9492 31.4786V27.3727C10.9492 27.1912 10.8771 27.0172 10.7487 26.8888C10.6204 26.7605 10.4463 26.6884 10.2648 26.6884ZM9.58052 30.7943H6.84325V28.0571H9.58052V30.7943Z" fill="#3BB30B"/>
<path d="M17.1086 26.6884H13.0027C12.8212 26.6884 12.6471 26.7605 12.5188 26.8888C12.3905 27.0172 12.3184 27.1912 12.3184 27.3727V31.4786C12.3184 31.6601 12.3905 31.8342 12.5188 31.9625C12.6471 32.0909 12.8212 32.163 13.0027 32.163H17.1086C17.2901 32.163 17.4641 32.0909 17.5925 31.9625C17.7208 31.8342 17.7929 31.6601 17.7929 31.4786V27.3727C17.7929 27.1912 17.7208 27.0172 17.5925 26.8888C17.4641 26.7605 17.2901 26.6884 17.1086 26.6884ZM16.4243 30.7943H13.687V28.0571H16.4243V30.7943Z" fill="#3BB30B"/>
<path d="M36.9532 20.9402V6.84319C36.9521 5.93606 36.5913 5.06639 35.9499 4.42496C35.3084 3.78352 34.4388 3.42268 33.5316 3.42159H30.7943V2.05296C30.7943 1.50848 30.5781 0.986301 30.1931 0.601297C29.808 0.216293 29.2859 0 28.7414 0C28.1969 0 27.6747 0.216293 27.2897 0.601297C26.9047 0.986301 26.6884 1.50848 26.6884 2.05296V3.42159H23.9512V2.05296C23.9512 1.50848 23.7349 0.986301 23.3499 0.601297C22.9649 0.216293 22.4427 0 21.8982 0C21.3537 0 20.8315 0.216293 20.4465 0.601297C20.0615 0.986301 19.8452 1.50848 19.8452 2.05296V3.42159H17.108V2.05296C17.108 1.50848 16.8917 0.986301 16.5067 0.601297C16.1217 0.216293 15.5995 0 15.055 0C14.5105 0 13.9884 0.216293 13.6034 0.601297C13.2184 0.986301 13.0021 1.50848 13.0021 2.05296V3.42159H10.2648V2.05296C10.2648 1.50848 10.0485 0.986301 9.66349 0.601297C9.27848 0.216293 8.7563 0 8.21183 0C7.66735 0 7.14517 0.216293 6.76017 0.601297C6.37516 0.986301 6.15887 1.50848 6.15887 2.05296V3.42159H3.42159C2.51446 3.42268 1.6448 3.78352 1.00336 4.42496C0.361924 5.06639 0.0010866 5.93606 0 6.84319V34.2159C0.0010866 35.1231 0.361924 35.9927 1.00336 36.6342C1.6448 37.2756 2.51446 37.6364 3.42159 37.6375H21.4075C22.4161 39.0234 23.7187 40.1689 25.222 40.9921C26.7254 41.8153 28.3922 42.2958 30.1031 42.3991C31.8139 42.5023 33.5264 42.2259 35.1179 41.5895C36.7093 40.9531 38.1403 39.9725 39.3082 38.7181C40.4761 37.4636 41.3521 35.9664 41.8733 34.3336C42.3945 32.7008 42.5481 30.9729 42.323 29.2738C42.0979 27.5747 41.4998 25.9464 40.5714 24.5056C39.6431 23.0648 38.4075 21.8473 36.9532 20.9402ZM28.0571 2.05296C28.0571 1.87146 28.1292 1.6974 28.2575 1.56907C28.3858 1.44074 28.5599 1.36864 28.7414 1.36864C28.9229 1.36864 29.0969 1.44074 29.2253 1.56907C29.3536 1.6974 29.4257 1.87146 29.4257 2.05296V6.15887C29.4257 6.34036 29.3536 6.51442 29.2253 6.64276C29.0969 6.77109 28.9229 6.84319 28.7414 6.84319C28.5599 6.84319 28.3858 6.77109 28.2575 6.64276C28.1292 6.51442 28.0571 6.34036 28.0571 6.15887V2.05296ZM21.2139 2.05296C21.2139 1.87146 21.286 1.6974 21.4143 1.56907C21.5427 1.44074 21.7167 1.36864 21.8982 1.36864C22.0797 1.36864 22.2538 1.44074 22.3821 1.56907C22.5104 1.6974 22.5825 1.87146 22.5825 2.05296V6.15887C22.5825 6.34036 22.5104 6.51442 22.3821 6.64276C22.2538 6.77109 22.0797 6.84319 21.8982 6.84319C21.7167 6.84319 21.5427 6.77109 21.4143 6.64276C21.286 6.51442 21.2139 6.34036 21.2139 6.15887V2.05296ZM14.3707 2.05296C14.3707 1.87146 14.4428 1.6974 14.5711 1.56907C14.6995 1.44074 14.8735 1.36864 15.055 1.36864C15.2365 1.36864 15.4106 1.44074 15.5389 1.56907C15.6672 1.6974 15.7393 1.87146 15.7393 2.05296V6.15887C15.7393 6.34036 15.6672 6.51442 15.5389 6.64276C15.4106 6.77109 15.2365 6.84319 15.055 6.84319C14.8735 6.84319 14.6995 6.77109 14.5711 6.64276C14.4428 6.51442 14.3707 6.34036 14.3707 6.15887V2.05296ZM7.52751 2.05296C7.52751 1.87146 7.5996 1.6974 7.72794 1.56907C7.85627 1.44074 8.03033 1.36864 8.21183 1.36864C8.39332 1.36864 8.56738 1.44074 8.69571 1.56907C8.82405 1.6974 8.89614 1.87146 8.89614 2.05296V6.15887C8.89614 6.34036 8.82405 6.51442 8.69571 6.64276C8.56738 6.77109 8.39332 6.84319 8.21183 6.84319C8.03033 6.84319 7.85627 6.77109 7.72794 6.64276C7.5996 6.51442 7.52751 6.34036 7.52751 6.15887V2.05296ZM3.42159 36.2689C2.87712 36.2689 2.35494 36.0526 1.96993 35.6676C1.58493 35.2826 1.36864 34.7604 1.36864 34.2159V6.84319C1.36864 6.29871 1.58493 5.77653 1.96993 5.39153C2.35494 5.00652 2.87712 4.79023 3.42159 4.79023H6.15887V6.15887C6.15887 6.70335 6.37516 7.22553 6.76017 7.61053C7.14517 7.99553 7.66735 8.21183 8.21183 8.21183C8.7563 8.21183 9.27848 7.99553 9.66349 7.61053C10.0485 7.22553 10.2648 6.70335 10.2648 6.15887V4.79023H13.0021V6.15887C13.0021 6.70335 13.2184 7.22553 13.6034 7.61053C13.9884 7.99553 14.5105 8.21183 15.055 8.21183C15.5995 8.21183 16.1217 7.99553 16.5067 7.61053C16.8917 7.22553 17.108 6.70335 17.108 6.15887V4.79023H19.8452V6.15887C19.8452 6.70335 20.0615 7.22553 20.4465 7.61053C20.8315 7.99553 21.3537 8.21183 21.8982 8.21183C22.4427 8.21183 22.9649 7.99553 23.3499 7.61053C23.7349 7.22553 23.9512 6.70335 23.9512 6.15887V4.79023H26.6884V6.15887C26.6884 6.70335 26.9047 7.22553 27.2897 7.61053C27.6747 7.99553 28.1969 8.21183 28.7414 8.21183C29.2859 8.21183 29.808 7.99553 30.1931 7.61053C30.5781 7.22553 30.7943 6.70335 30.7943 6.15887V4.79023H33.5316C34.0761 4.79023 34.5983 5.00652 34.9833 5.39153C35.3683 5.77653 35.5846 6.29871 35.5846 6.84319V20.2052C35.1402 19.9997 34.683 19.823 34.2159 19.6762V12.3177C34.2159 11.7733 33.9996 11.2511 33.6146 10.8661C33.2296 10.4811 32.7075 10.2648 32.163 10.2648H4.79023C4.24575 10.2648 3.72358 10.4811 3.33857 10.8661C2.95357 11.2511 2.73728 11.7733 2.73728 12.3177V32.8473C2.73728 33.3918 2.95357 33.914 3.33857 34.299C3.72358 34.684 4.24575 34.9003 4.79023 34.9003H19.9233C20.0974 35.3692 20.3018 35.8264 20.535 36.2689H3.42159ZM21.4075 23.9512H20.5296V21.2139H23.2668V21.9406C22.5703 22.5355 21.9463 23.2103 21.4075 23.9512ZM23.9512 19.8452H19.8452C19.6638 19.8452 19.4897 19.9173 19.3614 20.0457C19.233 20.174 19.1609 20.3481 19.1609 20.5296V24.6355C19.1609 24.817 19.233 24.991 19.3614 25.1194C19.4897 25.2477 19.6638 25.3198 19.8452 25.3198H20.535C19.1813 27.8333 18.8134 30.7613 19.5031 33.5316H4.79023C4.60874 33.5316 4.43468 33.4595 4.30635 33.3312C4.17801 33.2029 4.10591 33.0288 4.10591 32.8473V12.3177C4.10591 12.1362 4.17801 11.9622 4.30635 11.8339C4.43468 11.7055 4.60874 11.6334 4.79023 11.6334H32.163C32.3445 11.6334 32.5185 11.7055 32.6469 11.8339C32.7752 11.9622 32.8473 12.1362 32.8473 12.3177V19.3532C32.17 19.2287 31.483 19.1643 30.7943 19.1609C28.6146 19.1609 26.4794 19.7778 24.6355 20.9402V20.5296C24.6355 20.3481 24.5634 20.174 24.435 20.0457C24.3067 19.9173 24.1327 19.8452 23.9512 19.8452ZM30.7943 41.0591C28.7642 41.0591 26.7796 40.4571 25.0915 39.3292C23.4035 38.2013 22.0878 36.5982 21.3109 34.7225C20.534 32.8469 20.3307 30.783 20.7268 28.7918C21.1229 26.8006 22.1005 24.9716 23.5361 23.5361C24.9716 22.1005 26.8006 21.1229 28.7918 20.7268C30.783 20.3307 32.8469 20.534 34.7225 21.3109C36.5982 22.0878 38.2013 23.4035 39.3292 25.0915C40.4571 26.7796 41.0591 28.7642 41.0591 30.7943C41.0561 33.5158 39.9736 36.1249 38.0492 38.0492C36.1249 39.9736 33.5158 41.0561 30.7943 41.0591Z" fill="#535353"/>
<path d="M30.7941 21.8982C29.0346 21.8982 27.3146 22.42 25.8517 23.3975C24.3887 24.375 23.2485 25.7644 22.5751 27.3899C21.9018 29.0155 21.7256 30.8042 22.0689 32.5299C22.4121 34.2556 23.2594 35.8407 24.5036 37.0849C25.7477 38.329 27.3329 39.1763 29.0585 39.5196C30.7842 39.8628 32.5729 39.6866 34.1985 39.0133C35.8241 38.34 37.2134 37.1997 38.191 35.7368C39.1685 34.2738 39.6902 32.5538 39.6902 30.7944C39.6875 28.4358 38.7494 26.1746 37.0816 24.5068C35.4139 22.8391 33.1527 21.9009 30.7941 21.8982ZM30.7941 38.3219C29.3053 38.3219 27.8499 37.8804 26.612 37.0532C25.3741 36.2261 24.4093 35.0505 23.8396 33.675C23.2698 32.2995 23.1208 30.786 23.4112 29.3258C23.7017 27.8656 24.4186 26.5243 25.4713 25.4716C26.5241 24.4189 27.8654 23.7019 29.3256 23.4115C30.7857 23.121 32.2993 23.2701 33.6747 23.8398C35.0502 24.4096 36.2259 25.3744 37.053 26.6123C37.8801 27.8502 38.3216 29.3056 38.3216 30.7944C38.3192 32.79 37.5254 34.7033 36.1142 36.1145C34.7031 37.5257 32.7898 38.3195 30.7941 38.3219V38.3219Z" fill="#535353"/>
<path d="M31.479 23.9512H30.1104V26.6884H31.479V23.9512Z" fill="#535353"/>
<path d="M31.479 34.9003H30.1104V37.6375H31.479V34.9003Z" fill="#535353"/>
<path d="M37.6377 30.11H34.9004V31.4787H37.6377V30.11Z" fill="#535353"/>
<path d="M26.6884 30.11H23.9512V31.4787H26.6884V30.11Z" fill="#535353"/>
<path d="M26.4878 25.5203L25.52 26.4881L26.8885 27.8565L27.8562 26.8888L26.4878 25.5203Z" fill="#535353"/>
<path d="M34.7002 33.7322L33.7324 34.6999L35.1009 36.0684L36.0686 35.1006L34.7002 33.7322Z" fill="#535353"/>
<path d="M35.1004 25.5201L33.7319 26.8886L34.6997 27.8564L36.0681 26.4879L35.1004 25.5201Z" fill="#535353"/>
<path d="M26.8885 33.7324L25.52 35.1008L26.4878 36.0686L27.8562 34.7001L26.8885 33.7324Z" fill="#535353"/>
<path d="M32.163 30.7943C32.1623 30.4448 32.0273 30.109 31.786 29.8561L32.7324 28.4369L31.5937 27.6773L30.3838 29.4941C30.0849 29.5876 29.8273 29.7813 29.6546 30.0426C29.4819 30.304 29.4047 30.6169 29.436 30.9285C29.4673 31.2402 29.6052 31.5315 29.8263 31.7533C30.0475 31.9751 30.3385 32.1137 30.65 32.1459L32.9083 37.229L34.1592 36.6733L31.901 31.5929C32.0704 31.3611 32.1622 31.0815 32.163 30.7943Z" fill="#535353"/>
</svg>
